<svg width="31" height="31" viewBox="0 0 31 31" version="1.1" xmlns="http://www.w3.org/2000/svg" xmlns:xlink="http://www.w3.org/1999/xlink">
<title>be</title>
<desc>Created using Figma</desc>
<g id="Canvas" >
<g id="be">
<use xlink:href="#path0_fill" fill="#FFFFFF"/>
</g>
</g>
<defs>
<path id="path0_fill" fill-rule="evenodd" d="M 25.933 17.42L 18.882 17.42C 18.882 19.949 21.277 19.788 21.277 19.788C 23.539 19.788 23.459 18.325 23.459 18.325L 25.853 18.325C 25.853 22.21 21.197 21.943 21.197 21.943C 15.61 21.943 15.969 16.742 15.969 16.742C 15.969 16.742 15.965 11.514 21.197 11.514C 26.704 11.514 25.933 17.42 25.933 17.42ZM 15.432 17.642C 15.432 21.796 11.11 21.659 11.11 21.659L 4.02899 21.659L 4.02899 8.052L 11.11 8.052C 13.262 8.052 14.96 9.24 14.96 11.675C 14.96 14.11 12.884 14.264 12.884 14.264C 15.621 14.264 15.432 17.642 15.432 17.642ZM 18.27 10.53L 23.884 10.53L 23.884 8.854L 18.27 8.854L 18.27 10.53ZM 14.999 0C 6.716 0 0 6.716 0 15C 0 23.283 6.716 29.999 14.999 29.999C 23.283 29.999 29.999 23.283 29.999 15C 29.999 6.716 23.283 0 14.999 0ZM 21.25 13.507C 19.149 13.507 18.855 15.605 18.855 15.605L 23.325 15.605C 23.325 15.605 23.352 13.507 21.25 13.507ZM 11.11 15.605L 7.14899 15.605L 7.14899 19.241L 10.927 19.241C 11.495 19.225 12.544 19.047 12.544 17.473C 12.544 15.586 11.11 15.605 11.11 15.605ZM 12.072 11.8859C 12.072 10.4709 11.11 10.4709 11.11 10.4709L 7.14899 10.4709L 7.14899 13.5069L 10.864 13.5069C 11.506 13.5069 12.072 13.3019 12.072 11.8859Z"/>
</defs>
</svg>
