<svg width="31" height="31" viewBox="0 0 31 31" version="1.1" xmlns="http://www.w3.org/2000/svg" xmlns:xlink="http://www.w3.org/1999/xlink">
<title>github</title>
<desc>Created using Figma</desc>
<g id="Canvas" >
<g id="github">
<use xlink:href="#path0_fill"  fill="#FAC800"/>
</g>
</g>
<defs>
<path id="path0_fill" fill-rule="evenodd" d="M 22.532 2.062C 20.233 0.687 17.724 0 15.002 0C 12.28 0 9.77 0.687 7.472 2.062C 5.173 3.437 3.353 5.303 2.012 7.659C 0.67 10.015 0 12.588 0 15.378C 0 18.729 0.953 21.743 2.862 24.419C 4.769 27.096 7.234 28.948 10.255 29.976C 10.607 30.042 10.867 29.995 11.036 29.836C 11.206 29.676 11.29 29.475 11.29 29.235C 11.29 29.195 11.287 28.834 11.281 28.154C 11.274 27.473 11.271 26.879 11.271 26.372L 10.821 26.452C 10.535 26.505 10.174 26.528 9.737 26.522C 9.301 26.515 8.848 26.468 8.38 26.382C 7.911 26.295 7.475 26.095 7.071 25.781C 6.667 25.468 6.381 25.057 6.211 24.55L 6.016 24.089C 5.886 23.782 5.681 23.442 5.401 23.068C 5.121 22.694 4.838 22.441 4.551 22.307L 4.414 22.207C 4.323 22.14 4.239 22.06 4.161 21.966C 4.082 21.873 4.024 21.78 3.985 21.686C 3.946 21.593 3.978 21.516 4.082 21.455C 4.187 21.395 4.375 21.366 4.649 21.366L 5.039 21.426C 5.3 21.479 5.622 21.639 6.006 21.906C 6.391 22.173 6.706 22.52 6.954 22.947C 7.254 23.495 7.615 23.912 8.038 24.199C 8.461 24.486 8.888 24.629 9.317 24.629C 9.747 24.629 10.118 24.596 10.431 24.529C 10.743 24.463 11.036 24.362 11.31 24.229C 11.427 23.334 11.746 22.647 12.267 22.166C 11.525 22.086 10.857 21.966 10.265 21.806C 9.672 21.646 9.06 21.385 8.429 21.024C 7.797 20.664 7.273 20.217 6.856 19.683C 6.439 19.149 6.097 18.448 5.831 17.58C 5.564 16.713 5.43 15.711 5.43 14.577C 5.43 12.961 5.945 11.586 6.974 10.452C 6.492 9.237 6.537 7.875 7.11 6.367C 7.488 6.247 8.048 6.337 8.79 6.637C 9.532 6.938 10.076 7.195 10.421 7.408C 10.766 7.621 11.043 7.802 11.251 7.949C 12.463 7.602 13.713 7.428 15.002 7.428C 16.291 7.428 17.542 7.602 18.753 7.949L 19.495 7.468C 20.003 7.148 20.602 6.854 21.292 6.587C 21.982 6.32 22.51 6.247 22.875 6.367C 23.461 7.876 23.513 9.237 23.031 10.452C 24.06 11.587 24.574 12.962 24.574 14.577C 24.574 15.712 24.441 16.716 24.174 17.591C 23.907 18.465 23.562 19.166 23.139 19.693C 22.715 20.22 22.188 20.664 21.556 21.025C 20.925 21.385 20.313 21.646 19.72 21.806C 19.127 21.966 18.46 22.086 17.718 22.166C 18.395 22.767 18.734 23.715 18.734 25.01L 18.734 29.235C 18.734 29.475 18.815 29.675 18.978 29.835C 19.141 29.995 19.398 30.042 19.749 29.975C 22.771 28.947 25.235 27.095 27.143 24.418C 29.051 21.742 30.005 18.729 30.005 15.377C 30.004 12.588 29.333 10.015 27.992 7.659C 26.651 5.303 24.831 3.437 22.532 2.062Z"/>
</defs>
</svg>
