<svg width="655" height="464" viewBox="0 0 655 464" version="1.1" xmlns="http://www.w3.org/2000/svg" xmlns:xlink="http://www.w3.org/1999/xlink">
<title>Group 3</title>
<desc>Created using Figma</desc>
<g id="Canvas" transform="translate(-1395 -559)">
<g id="Group 3">
<g id="Page 1">
<g id="Fill 1">
<use xlink:href="#path0_fill" transform="matrix(-1 0 0 1 1948.23 617.346)" fill="#00A600"/>
</g>
<g id="Fill 2">
<use xlink:href="#path1_fill" transform="matrix(-1 0 0 1 2044.39 736.642)" fill="#00A600"/>
</g>
<g id="Fill 3">
<use xlink:href="#path2_fill" transform="matrix(-1 0 0 1 1996.2 611.572)" fill="#00A600"/>
</g>
<g id="Fill 4">
<use xlink:href="#path3_fill" transform="matrix(-1 0 0 1 1628.84 565.52)" fill="#00A600"/>
</g>
<g id="Fill 5">
<use xlink:href="#path4_fill" transform="matrix(-1 0 0 1 1589.87 564.228)" fill="#00A600"/>
</g>
<g id="Fill 6">
<use xlink:href="#path5_fill" transform="matrix(-1 0 0 1 1992.68 620.125)" fill="#00A600"/>
</g>
<g id="Fill 7">
<use xlink:href="#path6_fill" transform="matrix(-1 0 0 1 1924.6 673.75)" fill="#00A600"/>
</g>
<g id="Fill 8">
<use xlink:href="#path7_fill" transform="matrix(-1 0 0 1 1897.16 563.605)" fill="#00A600"/>
</g>
<g id="Fill 9">
<use xlink:href="#path8_fill" transform="matrix(-1 0 0 1 1534 609.533)" fill="#00A600"/>
</g>
<g id="Fill 10">
<use xlink:href="#path9_fill" transform="matrix(-1 0 0 1 1961.57 565.124)" fill="#00A600"/>
</g>
<g id="Fill 11">
<use xlink:href="#path10_fill" transform="matrix(-1 0 0 1 1966.34 857.837)" fill="#009400"/>
</g>
<g id="Fill 12">
<use xlink:href="#path11_fill" transform="matrix(-1 0 0 1 1574.3 866.99)" fill="#009400"/>
</g>
<g id="Fill 13">
<use xlink:href="#path12_fill" transform="matrix(-1 0 0 1 1893.74 913.474)" fill="#009400"/>
</g>
<g id="Fill 14">
<use xlink:href="#path13_fill" transform="matrix(-1 0 0 1 1755.22 718.011)" fill="#00A600"/>
</g>
<g id="Fill 15">
<use xlink:href="#path14_fill" transform="matrix(-1 0 0 1 1605.76 709.088)" fill="#009400"/>
</g>
<g id="Fill 16">
<use xlink:href="#path15_fill" transform="matrix(-1 0 0 1 1501.14 704.425)" fill="#009400"/>
</g>
<g id="Fill 17">
<use xlink:href="#path16_fill" transform="matrix(-1 0 0 1 1879.84 617.362)" fill="#00A600"/>
</g>
<g id="Fill 18">
<use xlink:href="#path17_fill" transform="matrix(-1 0 0 1 1544.66 918.004)" fill="#02105C"/>
</g>
<g id="Fill 19">
<use xlink:href="#path18_fill" transform="matrix(-1 0 0 1 1553.66 914.124)" fill="#009400"/>
</g>
<g id="Fill 20">
<use xlink:href="#path19_fill" transform="matrix(-1 0 0 1 2019.06 860.61)" fill="#02105C"/>
</g>
<g id="Fill 21">
<use xlink:href="#path20_fill" transform="matrix(-1 0 0 1 2027.21 857.31)" fill="#009400"/>
</g>
<g id="Fill 22">
<use xlink:href="#path21_fill" transform="matrix(-1 0 0 1 1870.29 970.819)" fill="#02105C"/>
</g>
<g id="Fill 23">
<use xlink:href="#path22_fill" transform="matrix(-1 0 0 1 1878.46 967.061)" fill="#009400"/>
</g>
<g id="Fill 24">
<use xlink:href="#path23_fill" transform="matrix(-1 0 0 1 1775.48 870.598)" fill="#02105C"/>
</g>
<g id="Fill 25">
<use xlink:href="#path24_fill" transform="matrix(-1 0 0 1 1778.18 866.93)" fill="#009400"/>
</g>
<g id="Fill 26">
<use xlink:href="#path25_fill" transform="matrix(-1 0 0 1 1943.89 916.592)" fill="#02105C"/>
</g>
<g id="Fill 27">
<use xlink:href="#path26_fill" transform="matrix(-1 0 0 1 1952.09 913.065)" fill="#009400"/>
</g>
<g id="Fill 28">
<use xlink:href="#path27_fill" transform="matrix(-1 0 0 1 1649.55 707.763)" fill="#02105C"/>
</g>
<g id="Fill 29">
<use xlink:href="#path28_fill" transform="matrix(-1 0 0 1 1655.23 702.025)" fill="#009400"/>
</g>
<g id="Fill 30">
<use xlink:href="#path29_fill" transform="matrix(-1 0 0 1 1435.89 800.453)" fill="#02105C"/>
</g>
<g id="Fill 31">
<use xlink:href="#path30_fill" transform="matrix(-1 0 0 1 1438.81 797.277)" fill="#009400"/>
</g>
<g id="Fill 32">
<use xlink:href="#path31_fill" transform="matrix(-1 0 0 1 1810.77 717.423)" fill="#02105C"/>
</g>
<g id="Fill 33">
<use xlink:href="#path32_fill" transform="matrix(-1 0 0 1 1816.23 711.677)" fill="#009400"/>
</g>
<g id="Fill 34">
<use xlink:href="#path33_fill" transform="matrix(-1 0 0 1 1464.76 857.234)" fill="#02105C"/>
</g>
<g id="Fill 35">
<use xlink:href="#path34_fill" transform="matrix(-1 0 0 1 1467.64 853.63)" fill="#009400"/>
</g>
<g id="Fill 36">
<use xlink:href="#path35_fill" transform="matrix(-1 0 0 1 1575.01 612.83)" fill="#009400"/>
</g>
<g id="Fill 37">
<use xlink:href="#path36_fill" transform="matrix(-1 0 0 1 1577.94 610.417)" fill="#009400"/>
</g>
<g id="Fill 38">
<use xlink:href="#path37_fill" transform="matrix(-1 0 0 1 1975.6 675.494)" fill="#02105C"/>
</g>
<g id="Fill 39">
<use xlink:href="#path38_fill" transform="matrix(-1 0 0 1 1981.92 672.918)" fill="#009400"/>
</g>
<g id="Fill 40">
<use xlink:href="#path39_fill" transform="matrix(-1 0 0 1 1884.86 618.689)" fill="#02105C"/>
</g>
<g id="Fill 41">
<use xlink:href="#path40_fill" transform="matrix(-1 0 0 1 1887.57 616.27)" fill="#009400"/>
</g>
<g id="Fill 42">
<use xlink:href="#path41_fill" transform="matrix(-1 0 0 1 1518.16 657.726)" fill="#02105C"/>
</g>
<g id="Fill 43">
<use xlink:href="#path42_fill" transform="matrix(-1 0 0 1 1521.1 655.087)" fill="#009400"/>
</g>
<g id="Fill 44">
<use xlink:href="#path43_fill" transform="matrix(-1 0 0 1 1569.39 612.057)" fill="#009400"/>
</g>
<g id="Fill 45">
<use xlink:href="#path44_fill" transform="matrix(-1 0 0 1 1630.67 567.442)" fill="#FFFFFF"/>
</g>
<g id="Fill 46">
<use xlink:href="#path45_fill" transform="matrix(-1 0 0 1 1632.34 564.607)" fill="#FFFFFF"/>
</g>
<g id="Fill 47">
<use xlink:href="#path46_fill" transform="matrix(-1 0 0 1 1534.64 610.199)" fill="#FFFFFF"/>
</g>
<g id="Fill 48">
<use xlink:href="#path47_fill" transform="matrix(-1 0 0 1 1536.58 608.604)" fill="#FFFFFF"/>
</g>
<g id="Fill 49">
<use xlink:href="#path48_fill" transform="matrix(-1 0 0 1 1799.72 717.856)" fill="#FFFFFF"/>
</g>
<g id="Fill 50">
<use xlink:href="#path49_fill" transform="matrix(-1 0 0 1 1801.53 716.232)" fill="#FFFFFF"/>
</g>
<g id="Fill 51">
<use xlink:href="#path50_fill" transform="matrix(-1 0 0 1 1947.5 619.01)" fill="#FFFFFF"/>
</g>
<g id="Fill 52">
<use xlink:href="#path51_fill" transform="matrix(-1 0 0 1 1949.28 617.455)" fill="#FFFFFF"/>
</g>
<g id="Fill 53">
<use xlink:href="#path52_fill" transform="matrix(-1 0 0 1 1924.86 613.236)" fill="#FFFFFF"/>
</g>
<g id="Fill 54">
<use xlink:href="#path53_fill" transform="matrix(-1 0 0 1 1928.07 611.676)" fill="#FFFFFF"/>
</g>
<g id="Fill 55">
<use xlink:href="#path54_fill" transform="matrix(-1 0 0 1 1497.69 702.455)" fill="#FFFFFF"/>
</g>
<g id="Fill 56">
<use xlink:href="#path55_fill" transform="matrix(-1 0 0 1 1499.64 700.844)" fill="#FFFFFF"/>
</g>
<g id="Fill 57">
<use xlink:href="#path56_fill" transform="matrix(-1 0 0 1 1896.43 565.267)" fill="#FFFFFF"/>
</g>
<g id="Fill 58">
<use xlink:href="#path57_fill" transform="matrix(-1 0 0 1 1898.24 563.725)" fill="#FFFFFF"/>
</g>
<g id="Fill 59">
<use xlink:href="#path58_fill" transform="matrix(-1 0 0 1 1960.84 566.785)" fill="#FFFFFF"/>
</g>
<g id="Fill 60">
<use xlink:href="#path59_fill" transform="matrix(-1 0 0 1 1962.38 563.732)" fill="#FFFFFF"/>
</g>
<g id="Fill 61">
<use xlink:href="#path60_fill" transform="matrix(-1 0 0 1 1639.53 705.053)" fill="#FFFFFF"/>
</g>
<g id="Fill 62">
<use xlink:href="#path61_fill" transform="matrix(-1 0 0 1 1641.41 703.463)" fill="#FFFFFF"/>
</g>
<g id="Fill 63">
<use xlink:href="#path62_fill" transform="matrix(-1 0 0 1 1502.97 706.343)" fill="#FFFFFF"/>
</g>
<g id="Fill 64">
<use xlink:href="#path63_fill" transform="matrix(-1 0 0 1 1504.7 703.562)" fill="#FFFFFF"/>
</g>
<g id="Fill 65">
<use xlink:href="#path64_fill" transform="matrix(-1 0 0 1 1591.7 566.147)" fill="#FFFFFF"/>
</g>
<g id="Fill 66">
<use xlink:href="#path65_fill" transform="matrix(-1 0 0 1 1593.68 564.607)" fill="#FFFFFF"/>
</g>
<g id="Fill 67">
<use xlink:href="#path66_fill" transform="matrix(-1 0 0 1 2046.77 736.269)" fill="#FFFFFF"/>
</g>
<g id="Fill 68">
<use xlink:href="#path67_fill" transform="matrix(-1 0 0 1 1991.95 622.65)" fill="#FFFFFF"/>
</g>
<g id="Fill 69">
<use xlink:href="#path68_fill" transform="matrix(-1 0 0 1 1993.59 619.507)" fill="#FFFFFF"/>
</g>
<g id="Fill 70">
<use xlink:href="#path69_fill" transform="matrix(-1 0 0 1 1995.85 733.71)" fill="#FFFFFF"/>
</g>
<g id="Fill 71">
<use xlink:href="#path70_fill" transform="matrix(-1 0 0 1 1997.58 732.137)" fill="#FFFFFF"/>
</g>
<g id="Fill 72">
<use xlink:href="#path71_fill" transform="matrix(-1 0 0 1 1926.97 708.637)" fill="#FFFFFF"/>
</g>
<g id="Fill 73">
<use xlink:href="#path72_fill" transform="matrix(-1 0 0 1 1928.66 706.093)" fill="#FFFFFF"/>
</g>
<g id="Fill 74">
<use xlink:href="#path73_fill" transform="matrix(-1 0 0 1 2050 729.102)" fill="#02105C"/>
</g>
<g id="Fill 75">
<use xlink:href="#path74_fill" transform="matrix(-1 0 0 1 2001.73 559.001)" fill="#02105C"/>
</g>
<g id="Fill 76">
<use xlink:href="#path75_fill" transform="matrix(-1 0 0 1 1808.08 747.308)" fill="#02105C"/>
</g>
<g id="Fill 77">
<use xlink:href="#path76_fill" transform="matrix(-1 0 0 1 1759.36 712.929)" fill="#02105C"/>
</g>
<g id="Fill 78">
<use xlink:href="#path77_fill" transform="matrix(-1 0 0 1 1645.84 737.118)" fill="#02105C"/>
</g>
<g id="Fill 79">
<use xlink:href="#path78_fill" transform="matrix(-1 0 0 1 1609.95 702.693)" fill="#02105C"/>
</g>
<g id="Fill 80">
<use xlink:href="#path79_fill" transform="matrix(-1 0 0 1 1573.61 606.646)" fill="#02105C"/>
</g>
<g id="Fill 81">
<use xlink:href="#path80_fill" transform="matrix(-1 0 0 1 1884.18 612.472)" fill="#02105C"/>
</g>
<g id="Fill 82">
<use xlink:href="#path81_fill" transform="matrix(-1 0 0 1 1562.31 916.952)" fill="#02105C"/>
</g>
<g id="Fill 83">
<use xlink:href="#path82_fill" transform="matrix(-1 0 0 1 1578.59 861.943)" fill="#02105C"/>
</g>
<g id="Fill 84">
<use xlink:href="#path83_fill" transform="matrix(-1 0 0 1 1886.65 972.678)" fill="#02105C"/>
</g>
<g id="Fill 85">
<use xlink:href="#path84_fill" transform="matrix(-1 0 0 1 1898.05 908.266)" fill="#02105C"/>
</g>
<g id="Fill 86">
<use xlink:href="#path85_fill" transform="matrix(-1 0 0 1 1960.24 917.409)" fill="#02105C"/>
</g>
<g id="Fill 87">
<use xlink:href="#path86_fill" transform="matrix(-1 0 0 1 1970.59 852.623)" fill="#02105C"/>
</g>
<g id="Fill 88">
<use xlink:href="#path87_fill" transform="matrix(-1 0 0 1 2035.28 860.417)" fill="#02105C"/>
</g>
<g id="Fill 89">
<use xlink:href="#path88_fill" transform="matrix(-1 0 0 1 1988.94 671.434)" fill="#02105C"/>
</g>
<g id="Fill 90">
<use xlink:href="#path89_fill" transform="matrix(-1 0 0 1 1929.1 667.916)" fill="#02105C"/>
</g>
</g>
</g>
</g>
<defs>
<path id="path0_fill" fill-rule="evenodd" d="M 0 1.13593L 8.0068 54.8073L 66.1728 52.3451L 66.2403 52.2837L 57.5643 0L 0 1.13593Z"/>
<path id="path1_fill" fill-rule="evenodd" d="M 0 46.2295L 12.9804 161.628L 60.6896 125.53L 45.247 0L 0 46.2295Z"/>
<path id="path2_fill" fill-rule="evenodd" d="M 356.002 157.342L 342.862 99.1824L 441.455 92.7721L 442.001 92.416L 443.665 94.9948L 442.499 95.7501L 455.762 148.341L 356.002 157.342ZM 193.146 172.042L 181.799 109.658L 294.655 102.32L 294.926 103.616L 307.237 161.745L 193.146 172.042ZM 568.483 88.9652L 530.162 91.4826L 543.585 140.113L 497.932 144.227L 471.763 45.2532L 427.075 47.1259L 415.199 0L 166.387 4.94899L 175.984 57.6564L 116.964 60.1247L 136.374 177.163L 70.6306 183.094L 70.4279 181.651L 61.5677 122.233L 0 123.86L 15.4671 249.586L 82.5057 241.85L 92.1396 306.518L 156.317 297.406L 166.976 361.706L 225.812 351.741L 220.113 321.5L 220.316 321.469L 214.44 289.154L 481.796 251.195L 495.624 306.058L 538.9 298.732L 530.666 267.583L 524.728 245.122L 567.58 238.54L 553.47 187.448L 555.748 187.196L 595.537 182.603L 568.483 88.9652Z"/>
<path id="path3_fill" fill-rule="evenodd" d="M 0 32.1439L 2.17363 43.8962L 46.9601 43.0059L 36.1289 0L 0 32.1439Z"/>
<path id="path4_fill" fill-rule="evenodd" d="M 0 0L 11.0585 43.8962L 52.2346 43.0857L 40.8629 0.0859626L 0 0Z"/>
<path id="path5_fill" fill-rule="evenodd" d="M 0 39.4384L 7.64453 89.6099L 49.496 53.0144L 41.5813 0L 0 39.4384Z"/>
<path id="path6_fill" fill-rule="evenodd" d="M 61.2054 112.224L 42.6006 0L 0 38.02L 13.9996 116.485L 61.2054 112.224Z"/>
<path id="path7_fill" fill-rule="evenodd" d="M 0 0L 8.3875 50.6381L 63.0904 49.5574L 54.1012 0.110523L 0 0Z"/>
<path id="path8_fill" fill-rule="evenodd" d="M 39.4323 0L 0 0.773664L 11.6725 44.9216L 51.1539 42.4471L 39.4323 0Z"/>
<path id="path9_fill" fill-rule="evenodd" d="M 0 56.6862L 0 60.708L 10.9357 50.3373L 69.7034 49.1768L 61.5492 0L 0 56.6862Z"/>
<path id="path10_fill" fill-rule="evenodd" d="M 0 36.3376L 9.89798 100.146L 59.3388 61.3343L 50.2022 0L 0 36.3376Z"/>
<path id="path11_fill" fill-rule="evenodd" d="M 70.8516 51.7925L 57.7914 0L 0 39.4139L 15.5163 94.6264L 70.8516 51.7925Z"/>
<path id="path12_fill" fill-rule="evenodd" d="M 61.5861 60.9475L 51.4793 0L 0 39.027L 10.8927 102.652L 61.5861 60.9475Z"/>
<path id="path13_fill" fill-rule="evenodd" d="M 0 33.3228L 4.24287 57.816L 62.5317 52.56L 51.3995 0L 0 33.3228Z"/>
<path id="path14_fill" fill-rule="evenodd" d="M 0 31.9842L 4.61742 53.217L 61.4571 48.0899L 49.3364 0L 0 31.9842Z"/>
<path id="path15_fill" fill-rule="evenodd" d="M 0 28.515L 5.17618 48.0838L 44.59 44.5286L 32.2974 0L 0 28.515Z"/>
<path id="path16_fill" fill-rule="evenodd" d="M 55.9617 48.9434L 47.0584 0L 0 46.5119L 0.792084 51.2521L 55.9617 48.9434Z"/>
<path id="path17_fill" fill-rule="evenodd" d="M 44.5286 5.00425L 74.0629 0L 27.7905 34.1886L 0 39.463L 44.5286 5.00425Z"/>
<path id="path18_fill" fill-rule="evenodd" d="M 92.1826 0L 52.5723 6.71122L 0 47.4022L 37.7437 40.2366L 92.1826 0ZM 73.9341 7.76117L 35.8465 35.9078L 17.9969 39.2972L 54.4758 11.0584L 73.9341 7.76117Z"/>
<path id="path19_fill" fill-rule="evenodd" d="M 38.456 5.9437L 89.923 0L 49.6127 29.1782L 0 35.042L 38.456 5.9437Z"/>
<path id="path20_fill" fill-rule="evenodd" d="M 106.563 0L 45.726 7.03051L 0 41.6243L 58.6326 34.6982L 106.563 0ZM 89.5976 6.59454L 56.9073 30.265L 16.3083 35.0604L 47.5066 11.4576L 89.5976 6.59454Z"/>
<path id="path21_fill" fill-rule="evenodd" d="M 41.4585 7.84102L 87.7433 0L 44.9585 34.2377L 0 41.9436L 41.4585 7.84102Z"/>
<path id="path22_fill" fill-rule="evenodd" d="M 48.6426 9.42519L 0 49.4346L 54.1135 40.1691L 104.291 0L 48.6426 9.42519ZM 50.6197 13.7602L 87.5406 7.50946L 52.1609 35.828L 16.3329 41.9682L 50.6197 13.7602Z"/>
<path id="path23_fill" fill-rule="evenodd" d="M 0 34.6614L 244.152 0L 197.984 31.493L 4.5069 59.4063L 0 34.6614Z"/>
<path id="path24_fill" fill-rule="evenodd" d="M 256.31 0L 0 36.3867L 5.32968 65.6754L 201.533 37.363L 256.31 0ZM 237.38 7.33752L 199.82 32.9544L 9.06909 60.4808L 5.39111 40.2735L 237.38 7.33752Z"/>
<path id="path25_fill" fill-rule="evenodd" d="M 40.0954 6.88929L 88.6213 0L 46.954 31.5851L 0 38.37L 40.0954 6.88929Z"/>
<path id="path26_fill" fill-rule="evenodd" d="M 105.286 0L 47.3593 8.22171L 0 45.4005L 56.0722 37.3139L 105.286 0ZM 88.3572 7.05505L 54.2362 32.9237L 16.4004 38.3823L 49.232 12.6058L 88.3572 7.05505Z"/>
<path id="path27_fill" fill-rule="evenodd" d="M 89.5239 0L 0 5.8209L 6.25685 33.5131L 41.5629 31.0939L 89.5239 0Z"/>
<path id="path28_fill" fill-rule="evenodd" d="M 11.3594 15.8048L 15.5593 34.385L 45.7444 32.3158L 77.8883 11.476L 11.3594 15.8048ZM 8.31381 44.1111L 0 7.31296L 112.525 0L 48.7531 41.348L 8.31381 44.1111Z"/>
<path id="path29_fill" fill-rule="evenodd" d="M 0 3.19904L 27.68 0L 4.43936 19.2618L 0 3.19904Z"/>
<path id="path30_fill" fill-rule="evenodd" d="M 38.0569 0L 0 4.39637L 6.09721 26.4765L 38.0569 0ZM 23.1669 6.3551L 8.63922 18.3899L 5.87 8.35066L 23.1669 6.3551Z"/>
<path id="path31_fill" fill-rule="evenodd" d="M 102.216 0L 0 6.64982L 5.26828 35.6008L 53.3582 31.6772L 102.216 0Z"/>
<path id="path32_fill" fill-rule="evenodd" d="M 10.9111 16.6522L 14.5093 36.4174L 57.288 32.9237L 90.3529 11.4883L 10.9111 16.6522ZM 6.94455 46.2724L 0 8.13575L 124.99 0L 60.3458 41.9191L 6.94455 46.2724Z"/>
<path id="path33_fill" fill-rule="evenodd" d="M 0 3.86832L 25.1502 0L 3.48763 17.0452L 0 3.86832Z"/>
<path id="path34_fill" fill-rule="evenodd" d="M 36.3376 0L 0 5.58143L 5.03495 24.6222L 36.3376 0ZM 19.7223 7.21472L 7.69982 16.6706L 5.75952 9.35765L 19.7223 7.21472Z"/>
<path id="path35_fill" fill-rule="evenodd" d="M 0 0.595598L 29.9703 0L 5.96826 24.2537L 0 0.595598Z"/>
<path id="path36_fill" fill-rule="evenodd" d="M 38.5358 0L 0 0.761383L 7.66909 31.1922L 38.5358 0ZM 27.2809 4.82617L 10.1436 22.1476L 5.88232 5.24984L 27.2809 4.82617Z"/>
<path id="path37_fill" fill-rule="evenodd" d="M 35.564 2.02626L 83.5802 0L 47.8321 31.8983L 0 33.1263L 35.564 2.02626Z"/>
<path id="path38_fill" fill-rule="evenodd" d="M 96.2413 0L 40.9735 2.33941L 0 38.1674L 55.0529 36.7552L 96.2413 0ZM 83.5618 5.14545L 53.2477 32.193L 12.6304 33.2368L 42.7848 6.87084L 83.5618 5.14545Z"/>
<path id="path39_fill" fill-rule="evenodd" d="M 0 0.847346L 43.1041 0L 5.94984 36.7122L 0 0.847346Z"/>
<path id="path40_fill" fill-rule="evenodd" d="M 51.5285 0L 0 1.01313L 7.11648 43.8962L 51.5285 0ZM 40.0893 4.83234L 10.205 34.3666L 5.41565 5.5139L 40.0893 4.83234Z"/>
<path id="path41_fill" fill-rule="evenodd" d="M 0 1.8482L 29.4545 0L 6.5393 26.5809L 0 1.8482Z"/>
<path id="path42_fill" fill-rule="evenodd" d="M 37.7192 0L 0 2.36397L 8.38136 34.0351L 37.7192 0ZM 27.0844 5.28058L 10.598 24.4134L 5.88843 6.613L 27.0844 5.28058Z"/>
<path id="path43_fill" fill-rule="evenodd" d="M 0 33.0281L 2.63414 43.4664L 43.7181 41.7471L 32.6781 0L 0 33.0281Z"/>
<path id="path44_fill" fill-rule="evenodd" d="M 2.17363 43.8901L 7.39279 43.7181L 5.09021 33.1632L 37.1665 4.10779L 36.1289 0L 0 32.1377L 2.17363 43.8901Z"/>
<path id="path45_fill" fill-rule="evenodd" d="M 3.33411 35.5455L 5.10862 45.1427L 7.15944 45.0813L 5.0595 35.4596L 37.1174 6.42264L 36.9271 5.66125L 3.33411 35.5455ZM 2.5666 48.2987L 0 34.4035L 38.6648 0L 40.5498 7.46647L 8.44276 36.5403L 10.948 48.0285L 2.5666 48.2987Z"/>
<path id="path46_fill" fill-rule="evenodd" d="M 10.4752 46.1742L 16.3083 46.0514L 5.18232 4.41479L 38.8858 3.60429L 38.2349 1.2526L 0 0L 10.4752 46.1742Z"/>
<path id="path47_fill" fill-rule="evenodd" d="M 3.87451 3.19904L 13.6313 46.211L 16.2593 46.1558L 5.13325 4.52532L 27.766 3.97884L 3.87451 3.19904ZM 11.1936 49.3303L 10.9111 48.1084L 0 0L 41.3542 1.3447L 42.8401 6.68052L 9.1059 7.49717L 20.2381 49.1399L 11.1936 49.3303Z"/>
<path id="path48_fill" fill-rule="evenodd" d="M 114.551 59.4247L 102.24 1.30172L 101.97 0L 99.4158 0.165785L 111.481 57.1222L 0 67.1798L 0.460514 69.7218L 114.551 59.4247Z"/>
<path id="path49_fill" fill-rule="evenodd" d="M 1.01313 73.0007L 0 67.4315L 111.432 57.3739L 99.3605 0.374551L 105.009 0L 118.223 62.4211L 1.01313 73.0007Z"/>
<path id="path50_fill" fill-rule="evenodd" d="M 10.7146 54.6906L 3.07009 3.4385L 57.9572 2.35783L 57.5643 0L 0 1.13593L 8.0068 54.8073L 10.7146 54.6906Z"/>
<path id="path51_fill" fill-rule="evenodd" d="M 8.46732 57.9511L 0 1.1912L 60.6343 0L 61.537 5.4095L 6.61912 6.49018L 14.2575 57.7116L 8.46732 57.9511Z"/>
<path id="path52_fill" fill-rule="evenodd" d="M 98.8447 7.25156L 345.177 2.35169L 344.581 0L 95.7746 4.94899L 105.366 57.6564L 46.1803 58.0493L 46.6654 60.358L 46.5979 60.4194L 46.4014 60.4317L 65.0491 175.732L 0 182.259L 0.128944 182.388L 3.08851 185.397L 72.2761 179.318L 51.3013 62.9062L 108.436 59.9589L 98.8447 7.25156Z"/>
<path id="path53_fill" fill-rule="evenodd" d="M 6.55164 185.022L 6.88935 185.366L 73.6762 179.502L 52.6951 63.0229L 94.9826 60.837L 51.2768 61.1317L 51.5592 62.4641L 51.2829 62.7159L 70.035 178.661L 6.55164 185.022ZM 5.71037 188.553L 0 182.744L 3.05781 182.29L 66.4859 175.929L 47.8259 60.5607L 48.0163 60.5545L 47.5005 58.0862L 106.741 57.6932L 97.15 5.01039L 348.984 0L 350.347 5.4095L 348.419 5.44635L 103.892 10.3094L 113.471 62.9615L 56.3239 65.9149L 77.2927 182.259L 5.71037 188.553Z"/>
<path id="path54_fill" fill-rule="evenodd" d="M 43.2453 51.1478L 0 55.0468L 0.66314 57.5643L 50.3618 52.7442L 37.0622 4.39023L 68.8561 2.46221L 68.1499 0L 29.8229 2.52362L 43.2453 51.1478Z"/>
<path id="path55_fill" fill-rule="evenodd" d="M 33.7526 5.53847L 46.9417 53.3337L 50.3433 53.0021L 37.2279 5.31128L 33.7526 5.53847ZM 1.46136 60.8308L 0 55.2924L 43.2269 51.3995L 29.7922 2.7201L 71.2323 0L 72.8165 5.48319L 40.998 7.41735L 54.2793 55.7038L 1.46136 60.8308Z"/>
<path id="path56_fill" fill-rule="evenodd" d="M 11.0708 50.5829L 3.07009 2.30257L 54.5187 2.40695L 54.1012 0.110523L 0 0L 8.39364 50.6381L 11.0708 50.5829Z"/>
<path id="path57_fill" fill-rule="evenodd" d="M 8.90327 53.7389L 8.68222 52.4311L 0 0L 57.1897 0.122804L 58.166 5.49547L 6.6928 5.38494L 14.6812 53.6223L 8.90327 53.7389Z"/>
<path id="path58_fill" fill-rule="evenodd" d="M 61.5492 0L 0 56.6862L 0 60.708L 10.9357 50.3373L 12.4953 50.3066L 62.2861 4.45164L 61.5492 0Z"/>
<path id="path59_fill" fill-rule="evenodd" d="M 62.0405 6.10333L 12.3602 51.8539L 13.4225 51.8354L 62.1756 6.9384L 62.0405 6.10333ZM 0 67.3394L 0 59.0686L 0.503495 58.6142L 64.1404 0L 65.479 8.07435L 64.8649 8.6331L 14.6443 54.881L 13.097 54.9117L 0 67.3394Z"/>
<path id="path60_fill" fill-rule="evenodd" d="M 83.2118 0.257888L 97.2606 56.7783L 0 65.5526L 0.571037 68.0824L 103.167 58.8476L 88.3266 0L 83.2118 0.257888Z"/>
<path id="path61_fill" fill-rule="evenodd" d="M 87.0371 3.28501L 100.951 59.2651L 103.118 59.0686L 89.0327 3.18677L 87.0371 3.28501ZM 1.2526 71.3183L 0 65.7737L 97.2237 56.9994L 83.1504 0.405252L 91.3967 0L 106.98 61.801L 1.2526 71.3183Z"/>
<path id="path62_fill" fill-rule="evenodd" d="M 32.2974 0L 0 28.515L 5.17618 48.0838L 10.8681 47.5803L 5.75336 28.3922L 33.4088 4.02796L 32.2974 0Z"/>
<path id="path63_fill" fill-rule="evenodd" d="M 3.45081 31.8185L 8.04981 49.2198L 10.641 48.9926L 5.74724 30.6518L 33.4026 6.29985L 33.1939 5.55688L 3.45081 31.8185ZM 5.74721 52.5047L 0 30.7746L 34.8456 0L 36.8657 7.33138L 9.20414 31.6895L 14.5522 51.7249L 5.74721 52.5047Z"/>
<path id="path64_fill" fill-rule="evenodd" d="M 11.0585 43.8962L 16.5785 43.669L 5.83318 2.79993L 41.4708 2.38239L 40.8629 0.0859626L 0 0L 11.0585 43.8962Z"/>
<path id="path65_fill" fill-rule="evenodd" d="M 3.94812 3.0824L 14.2145 43.8532L 16.5846 43.755L 5.88842 3.0824L 3.94812 3.0824ZM 11.8506 47.0154L 0 0L 44.019 0.0921028L 45.4435 5.43407L 9.7936 5.8516L 20.5266 46.6716L 11.8506 47.0154Z"/>
<path id="path66_fill" fill-rule="evenodd" d="M 0 47.1996L 12.2865 165.018L 21.11 160.026L 8.82959 47.9671L 49.5083 8.43662L 46.4382 0L 0 47.1996Z"/>
<path id="path67_fill" fill-rule="evenodd" d="M 10.0453 86.6503L 3.07009 40.8814L 42.269 3.70867L 41.7164 0L 34.1824 7.14718L 34.1824 6.16475L 0 38.5788L 7.64453 88.7503L 10.0453 86.6503Z"/>
<path id="path68_fill" fill-rule="evenodd" d="M 3.27271 42.2814L 3.40165 43.141L 34.2806 13.8584L 34.2806 12.8821L 3.27271 42.2814ZM 8.18487 94.8904L 0 41.1515L 37.3508 5.73493L 37.3508 6.71736L 44.4365 0L 45.5418 7.41121L 6.34281 44.5839L 13.3242 90.3958L 8.18487 94.8904Z"/>
<path id="path69_fill" fill-rule="evenodd" d="M 21.4907 126.832L 5.94984 6.23229L 62.3045 4.13235L 62.1694 0L 0 1.53505L 15.8478 129.116L 21.4907 126.832Z"/>
<path id="path70_fill" fill-rule="evenodd" d="M 3.46301 4.59902L 18.8565 128.52L 21.5459 127.427L 5.93751 6.3367L 62.4456 4.22447L 62.4149 3.1438L 3.46301 4.59902ZM 16.3022 132.861L 0 1.61487L 65.3868 0L 65.614 7.17788L 9.41905 9.27782L 24.8923 129.38L 16.3022 132.861Z"/>
<path id="path71_fill" fill-rule="evenodd" d="M 5.31126 0L 19.9556 80.2093L 14.3312 82.2539L 0 3.45079L 5.31126 0Z"/>
<path id="path72_fill" fill-rule="evenodd" d="M 3.3833 6.72962L 17.2049 82.7328L 19.9004 81.7504L 5.90078 5.08405L 3.3833 6.72962ZM 14.8286 86.8591L 0 5.26828L 8.09891 0L 23.3941 83.7522L 14.8286 86.8591Z"/>
<path id="path73_fill" fill-rule="evenodd" d="M 49.2136 1.82978L 0 52.1118L 13.8707 175.431L 78.6312 167.774L 89.0818 235.181L 151.276 226.204L 162.795 293.433L 226.806 282.461L 283.984 236.704L 278.537 207.839L 470.909 180.079L 487.365 238.663L 534.497 229.717L 597.324 183.671L 582.624 128.066L 576.68 129.632L 590.318 181.209L 532.667 223.816L 491.761 231.577L 475.361 173.233L 271.316 202.675L 277.266 234.224L 224.203 276.677L 167.805 286.348L 156.329 219.272L 94.2212 228.237L 83.7829 160.99L 19.274 168.603L 6.42264 54.3222L 51.8662 7.89628L 115.865 6.14019L 115.693 0L 49.2136 1.82978Z"/>
<path id="path74_fill" fill-rule="evenodd" d="M 100.779 0L 34.7657 60.7878L 34.7657 69.0832L 3.3464 98.8877L 12.1821 156.863L 72.1165 155.334L 85.453 230.134L 79.2944 230.693L 70.2683 170.089L 2.18591 171.895L 2.27801 175.315L 0 175.597L 16.1978 307.261L 83.3469 299.5L 92.9993 364.291L 157.244 355.173L 167.922 419.59L 232.86 408.593L 232.351 405.565L 235.372 405.013L 224.571 345.613L 483.079 308.907L 496.944 363.88L 546.059 355.566L 545.556 352.539L 548.521 351.753L 540.932 323.066L 577.884 293.998L 570.865 268.547L 606.239 239.24L 576.619 136.693L 531.679 139.659L 499.768 167.824L 490.859 134.108L 523.715 96.008L 509.857 45.8488L 467.637 46.6838L 455.479 0.712262L 407.929 0.620159L 367.097 36.9455L 369.32 48.9803L 171.324 52.91L 161.72 0.116664L 100.779 0ZM 105.593 6.1463L 156.605 6.24454L 165.042 52.6582L 113.477 53.6775L 105.593 6.1463ZM 413.038 6.76648L 450.757 6.84016L 461.325 46.8189L 423.317 47.5619L 413.038 6.76648ZM 99.8702 9.17346L 107.275 53.8003L 50.196 54.924L 99.8702 9.17346ZM 373.759 39.2296L 407.352 9.34534L 417.097 48.0224L 375.546 48.8513L 373.759 39.2296ZM 468.92 52.8056L 505.208 52.0872L 516.113 91.5625L 479.77 93.8405L 468.92 52.8056ZM 424.969 53.6714L 462.608 52.9346L 473.286 93.3493L 435.364 94.9396L 424.969 53.6714ZM 142.894 231.117L 123.504 114.152L 182.542 111.665L 172.957 59.0195L 418.749 54.1319L 430.63 101.282L 475.324 99.4096L 501.512 198.445L 550.302 194.054L 536.886 145.473L 572.087 143.152L 598.294 233.855L 556.252 238.694L 570.374 289.86L 527.54 296.43L 541.724 350.07L 501.512 356.88L 487.691 302.048L 217.387 340.437L 228.783 403.054L 172.975 412.504L 162.316 348.247L 98.1693 357.359L 88.5415 292.727L 21.5398 300.458L 6.4718 177.924L 64.9939 176.371L 74.063 237.318L 142.894 231.117ZM 115.178 59.7809L 166.669 58.7739L 175.241 105.845L 123.184 108.024L 115.178 59.7809ZM 54.4819 60.9844L 108.976 59.9037L 117.161 109.222L 62.0221 111.561L 54.4819 60.9844ZM 9.89795 101.123L 48.7653 64.2693L 56.766 117.928L 117.474 115.362L 135.759 225.597L 91.587 229.582L 77.2374 149.065L 17.432 150.594L 9.89795 101.123ZM 481.796 99.8701L 514.02 97.8439L 488.955 126.912L 481.796 99.8701ZM 501.524 174.461L 531.273 148.2L 542.418 188.59L 506.129 191.862L 501.524 174.461ZM 564.087 243.986L 595.224 240.388L 569.073 262.063L 564.087 243.986ZM 535.222 301.471L 564.099 297.032L 539.225 316.6L 535.222 301.471ZM 345.711 150.336L 359.539 211.56L 462.424 202.282L 447.656 143.711L 345.711 150.336ZM 353.282 155.998L 442.953 150.171L 454.711 196.811L 364.346 204.966L 353.282 155.998ZM 184.709 160.805L 196.621 226.266L 313.837 215.686L 300.617 153.271L 184.709 160.805ZM 191.991 166.491L 295.711 159.743L 306.401 210.191L 201.662 219.641L 191.991 166.491Z"/>
<path id="path75_fill" fill-rule="evenodd" d="M 51.9705 30.4185L 47.8443 6.57L 0.503495 10.4383L 0 4.32269L 52.9407 0L 58.0248 29.3747L 51.9705 30.4185Z"/>
<path id="path76_fill" fill-rule="evenodd" d="M 3.3464 40.2428L 0 35.085L 54.1257 0L 57.466 5.15776L 3.3464 40.2428Z"/>
<path id="path77_fill" fill-rule="evenodd" d="M 39.684 27.4344L 35.1341 6.49018L 0.417533 8.86643L 0 2.73852L 40.0033 0L 45.683 26.1265L 39.684 27.4344Z"/>
<path id="path78_fill" fill-rule="evenodd" d="M 3.3464 40.2489L 0 35.0912L 54.1196 0L 57.4599 5.15776L 3.3464 40.2489Z"/>
<path id="path79_fill" fill-rule="evenodd" d="M 4.36567 39.6779L 0 35.3613L 34.9868 0L 39.3525 4.31655L 4.36567 39.6779Z"/>
<path id="path80_fill" fill-rule="evenodd" d="M 4.31655 52.8056L 0 48.4399L 49.0048 0L 53.3214 4.36567L 4.31655 52.8056Z"/>
<path id="path81_fill" fill-rule="evenodd" d="M 3.75165 49.6987L 0 44.8418L 57.9327 0L 61.6905 4.85689L 3.75165 49.6987Z"/>
<path id="path82_fill" fill-rule="evenodd" d="M 3.45693 46.3523L 0 41.2805L 60.5238 0L 63.9746 5.07179L 3.45693 46.3523Z"/>
<path id="path83_fill" fill-rule="evenodd" d="M 0 43.9453L 3.89902 48.6794L 57.3248 4.74022L 53.4196 0L 0 43.9453Z"/>
<path id="path84_fill" fill-rule="evenodd" d="M 3.70867 46.0207L 0 41.127L 54.2486 0L 57.9572 4.89373L 3.70867 46.0207Z"/>
<path id="path85_fill" fill-rule="evenodd" d="M 3.7885 45.8181L 0 40.9857L 52.2039 0L 55.9924 4.83233L 3.7885 45.8181Z"/>
<path id="path86_fill" fill-rule="evenodd" d="M 3.59815 43.3497L 0 38.37L 53.0082 0L 56.6064 4.97969L 3.59815 43.3497Z"/>
<path id="path87_fill" fill-rule="evenodd" d="M 3.70867 43.1471L 0 38.2534L 50.5706 0L 54.2731 4.89373L 3.70867 43.1471Z"/>
<path id="path88_fill" fill-rule="evenodd" d="M 4.04024 43.6076L 0 38.9902L 44.59 0L 48.6303 4.61742L 4.04024 43.6076Z"/>
<path id="path89_fill" fill-rule="evenodd" d="M 4.08936 45.5725L 0 40.9919L 45.9225 0L 50.0118 4.58058L 4.08936 45.5725Z"/>
</defs>
</svg>
