<svg width="272" height="216" viewBox="0 0 272 216" version="1.1" xmlns="http://www.w3.org/2000/svg" xmlns:xlink="http://www.w3.org/1999/xlink">
<title>Page 1</title>
<desc>Created using Figma</desc>
<g id="Canvas" transform="translate(-1694 -3639)">
<g id="Page 1">
<g id="Fill 1">
<use xlink:href="#path0_fill" transform="translate(1852.98 3738.57)" fill="#FFCA00"/>
</g>
<g id="Fill 3">
<use xlink:href="#path1_fill" transform="translate(1869.39 3688.53)" fill="#FFCA00"/>
</g>
<g id="Fill 5">
<use xlink:href="#path2_fill" transform="translate(1700.34 3838.04)" fill="#FFCA00"/>
</g>
<g id="Fill 7">
<use xlink:href="#path3_fill" transform="translate(1925.52 3688.34)" fill="#CCCCCC"/>
</g>
<g id="Fill 9">
<use xlink:href="#path4_fill" transform="translate(1938.28 3706.6)" fill="#CCCCCC"/>
</g>
<g id="Fill 11">
<use xlink:href="#path5_fill" transform="translate(1853.23 3692.57)" fill="#DE9B00"/>
</g>
<g id="Fill 13">
<use xlink:href="#path6_fill" transform="translate(1898.17 3713.12)" fill="#FFFFFF"/>
</g>
<g id="Fill 15">
<use xlink:href="#path7_fill" transform="translate(1708.24 3841.64)" fill="#FFFFFF"/>
</g>
<g id="Group 19">
<mask id="mask0_outline" mask-type="alpha">
<g id="Clip 18">
<use xlink:href="#path8_fill" transform="translate(1694 3639.01)" fill="#FFFFFF"/>
</g>
</mask>
<g id="Fill 17" mask="url(#mask0_outline)">
<use xlink:href="#path9_fill" transform="translate(1694 3639.01)" fill="#02105C"/>
</g>
</g>
<g id="Fill 20">
<use xlink:href="#path10_fill" transform="translate(1851.47 3737.08)" fill="#02105C"/>
</g>
<g id="Fill 22">
<use xlink:href="#path11_fill" transform="translate(1867.85 3686.76)" fill="#02105C"/>
</g>
<g id="Fill 24">
<use xlink:href="#path12_fill" transform="translate(1914.25 3692.36)" fill="#02105C"/>
</g>
<g id="Fill 26">
<use xlink:href="#path13_fill" transform="translate(1876.67 3712.4)" fill="#02105C"/>
</g>
<g id="Fill 28">
<use xlink:href="#path14_fill" transform="translate(1890.27 3728.27)" fill="#02105C"/>
</g>
<g id="Fill 30">
<use xlink:href="#path15_fill" transform="translate(1936.26 3716.02)" fill="#02105C"/>
</g>
<g id="Fill 32">
<use xlink:href="#path16_fill" transform="translate(1923.83 3697.34)" fill="#02105C"/>
</g>
<g id="Fill 34">
<use xlink:href="#path17_fill" transform="translate(1705.92 3836.21)" fill="#02105C"/>
</g>
<g id="Fill 36">
<use xlink:href="#path18_fill" transform="translate(1698.71 3838.24)" fill="#02105C"/>
</g>
</g>
</g>
<defs>
<path id="path0_fill" fill-rule="evenodd" d="M 2.20924 10.2255C -0.858955 12.6666 -0.750559 18.9501 2.65487 23.8022C 6.05729 28.6512 10.2697 31.0079 15.3552 28.1088C 20.4408 25.2096 28.3446 19.8633 28.3446 19.8633L 16.4964 0C 16.4964 0 5.27744 7.78438 2.20924 10.2255Z"/>
<path id="path1_fill" fill-rule="evenodd" d="M 88.0714 19.8633C 83.9373 22.1718 72.0138 29.031 72.0138 29.031L 65.2391 17.0998C 65.2391 17.0998 77.9063 8.99293 80.544 7.05512C 84.3077 4.29156 80.544 -2.23611 75.7776 0.777584C 72.065 3.12224 59.467 10.319 59.467 10.319L 48.6787 4.29156L 1.25558 32.9217L 0 48.9968L 12.5468 69.5894L 29.1072 75.8669L 77.2831 47.2368L 76.5303 36.1885C 76.5303 36.1885 89.2397 28.5337 92.338 26.394C 97.6072 22.7505 93.4671 16.8496 88.0714 19.8633Z"/>
<path id="path2_fill" fill-rule="evenodd" d="M 24.4643 0.753425C 19.9478 0.566575 7.71716 0 7.71716 0L 7.61479 2.61288L 0.752747 2.07041L 0 12.0548L 6.96442 12.0548L 7.42811 7.40466L 7.1511 14.5019C 7.1511 14.5019 18.4423 14.8786 23.1485 14.8786C 27.8516 14.8786 29.5438 11.1145 29.5438 7.53425C 29.5438 3.95397 28.9808 0.940274 24.4643 0.753425Z"/>
<path id="path3_fill" fill-rule="evenodd" d="M 0.450727 17.029C 2.0315 20.1211 5.89761 19.0603 10.1642 16.5498C 14.4307 14.0394 20.6213 9.57012 23.3583 7.72272C 26.0983 5.87533 26.1676 3.88327 25.1288 1.55368C 24.09 -0.778921 21.4524 -0.326866 17.7669 1.85807C 14.0815 4.03998 8.77611 7.54491 5.71996 9.13615C 2.6638 10.7244 -1.35888 13.4909 0.450727 17.029Z"/>
<path id="path4_fill" fill-rule="evenodd" d="M 0.416953 16.5952C 1.9375 19.7174 5.82469 18.7319 10.1364 16.3028C 14.4512 13.8768 20.7261 9.52804 23.4992 7.73489C 26.2753 5.94174 26.3837 3.94969 25.3901 1.599C 24.3965 -0.751683 21.7498 -0.350861 18.0222 1.76174C 14.2946 3.87133 8.923 7.27681 5.83673 8.80476C 2.75348 10.3357 -1.3234 13.0209 0.416953 16.5952Z"/>
<path id="path5_fill" fill-rule="evenodd" d="M 61.6893 15.5296L 65.6397 0L 17.4127 28.6301L 15.2057 46.7967C 15.2057 46.7967 5.26037 53.4841 1.9543 55.9795C -1.35177 58.4748 0.0453329 66.7715 2.39993 69.5562C 2.39993 69.5562 0.906476 61.3016 3.72777 59.2282C 6.55208 57.1578 18.593 49.4337 18.593 49.4337L 16.1571 44.9553L 61.6893 15.5296Z"/>
<path id="path6_fill" fill-rule="evenodd" d="M 18.4423 0L 27.1621 18.1455L 40.8983 23.0427L 0.773824 46.8419L 0 50.166L 47.7453 22.3918L 29.1072 15.1559L 18.4423 0Z"/>
<path id="path7_fill" fill-rule="evenodd" d="M 19.6256 0C 19.6256 0 19.7551 4.24027 18.3941 6.2926C 17.2018 8.09178 14.5461 7.93205 11.9928 7.80548C 9.6442 7.69096 0 7.44082 0 7.44082L 0 10.3611C 0 10.3611 13.9559 11.3616 15.7836 11.003C 17.6113 10.6444 21.5466 7.87781 21.4804 5.53918C 21.4142 3.20055 20.8481 1.13014 19.6256 0Z"/>
<path id="path8_fill" fill-rule="evenodd" d="M 0 208.351L 0 0L 162.131 0L 162.131 208.351L 4.32153e-15 208.351L 0 208.351Z"/>
<path id="path9_fill" fill-rule="evenodd" d="M 41.9301 208.352C 39.0335 208.352 37.1667 208.267 36.8114 208.252L 36.959 205.241C 37.3865 205.269 81.356 207.176 94.8091 190.339C 98.6481 185.541 99.6056 179.535 97.6605 172.492C 93.5535 157.604 78.0048 154.262 60.0081 150.389C 33.7011 144.729 3.88325 138.313 0.258022 93.8552C -3.38527 49.2072 32.1504 14.5798 69.1314 3.44722C 93.9449 -4.02374 114.597 0.84338 123.016 16.159C 136.093 39.9612 114.483 63.1124 95.4143 83.5363C 81.5848 98.3486 68.5232 112.341 71.9467 123.426C 74.0634 130.279 78.8659 135.155 86.2157 137.915C 103.779 144.512 135.039 137.855 160.551 122.084L 162.132 124.649C 135.476 141.128 103.821 147.752 85.1589 140.736C 76.8877 137.632 71.4769 132.108 69.0712 124.315C 65.1298 111.561 78.7696 96.9502 93.2133 81.4779C 111.583 61.8015 132.404 39.4971 120.375 17.6086C 112.688 3.61297 93.3759 -0.699634 69.9986 6.33133C 34.1768 17.1143 -0.253846 50.5574 3.25697 93.6111C 6.70455 135.836 35.3571 142.002 60.6404 147.442C 78.8087 151.351 95.9683 155.042 100.566 171.687C 102.779 179.718 101.635 186.626 97.1607 192.225C 85.4811 206.839 54.3173 208.352 41.9301 208.352Z"/>
<path id="path10_fill" fill-rule="evenodd" d="M 12.5022 32.126C 9.56047 32.126 6.22429 30.6041 2.92425 25.9088C -0.914761 20.4329 -0.984014 13.2784 2.77671 10.2858C 5.84491 7.84164 16.6845 0.319452 17.1421 0L 18.8584 2.47726C 18.747 2.5526 7.64548 10.2616 4.65256 12.6425C 2.42443 14.4175 2.26785 19.7247 5.39025 24.1759C 9.87662 30.5619 13.6614 29.4408 16.1154 28.0395C 21.0926 25.2005 28.9272 19.9085 29.0024 19.8542L 30.6916 22.3496C 30.3664 22.5726 22.6824 27.7622 17.6028 30.6584C 16.1515 31.4871 14.4112 32.126 12.5022 32.126Z"/>
<path id="path11_fill" fill-rule="evenodd" d="M 15.1032 69.8727L 30.5014 75.7102L 77.259 47.9239L 76.5063 36.8787L 77.2921 36.4056C 77.4186 36.3302 89.9985 28.7508 93.0215 26.6623C 94.6204 25.5563 95.2135 24.1368 94.5361 23.0459C 93.9399 22.0815 92.3651 21.5601 90.3418 22.6872C 86.2137 24.9957 74.3022 31.8459 74.3022 31.8459L 72.9924 32.5993L 64.7634 18.1124L 65.9678 17.3409C 66.0943 17.2596 78.626 9.23407 81.1914 7.3475C 82.4138 6.45243 82.2783 5.02092 81.631 4.0716C 81.3208 3.62256 80.1646 2.2664 78.1201 3.55928C 74.4227 5.89791 62.2673 12.8445 61.7524 13.1368L 61.0147 13.5587L 50.2474 7.54339L 4.2365 35.3237L 3.07727 50.136L 15.1032 69.8727ZM 30.7904 79.0435L 13.0677 72.323L 0 50.8714L 1.35495 33.5427L 50.1872 4.05966L 60.9966 10.0991C 63.7457 8.52596 73.3868 2.98678 76.5122 1.0098C 79.722 -1.01541 82.7058 0.298565 84.118 2.375C 85.5603 4.49665 85.6536 7.81473 82.9738 9.77966C 80.7818 11.386 72.0379 17.0246 68.7921 19.1071L 74.1155 28.4797C 77.3282 26.6323 85.5783 21.8977 88.8784 20.0564C 92.4554 18.0492 95.7163 19.2457 97.0893 21.4547C 98.36 23.495 98.1643 26.7709 94.7317 29.1427C 92.0489 30.9991 82.483 36.7914 79.6346 38.5123L 80.3874 49.5695L 30.7904 79.0435Z"/>
<path id="path12_fill" fill-rule="evenodd" d="M 31.8834 44.5515L 12.607 37.0896L 0 17.374L 2.33352 0L 5.3144 0.400822L 3.12842 16.6778L 14.6123 34.6334L 32.9703 41.7397L 31.8834 44.5515Z"/>
<path id="path13_fill" fill-rule="evenodd" d="M 32.618 0C 32.618 0 30.8446 1.68466 27.9721 3.8726C 25.1147 6.08164 21.1703 8.80603 17.0964 11.3285C 13.0165 13.8329 8.80714 16.1323 5.54925 17.6874C 2.30341 19.2666 0 20.0923 0 20.0923C 0 20.0923 1.77347 18.4047 4.64295 16.2137C 7.50037 14.0047 11.4478 11.2833 15.5216 8.76384C 19.6015 6.26247 23.8139 3.96301 27.0688 2.40493C 30.3146 0.825753 32.618 0 32.618 0Z"/>
<path id="path14_fill" fill-rule="evenodd" d="M 32.618 0C 32.618 0 30.8446 1.68466 27.9721 3.8726C 25.1147 6.08164 21.1703 8.80603 17.0964 11.3285C 13.0165 13.8329 8.80714 16.1323 5.54925 17.6874C 2.30341 19.2666 0 20.0923 0 20.0923C 0 20.0923 1.77347 18.4047 4.64295 16.2137C 7.50037 14.0047 11.4478 11.2833 15.5216 8.76384C 19.6015 6.26247 23.8109 3.96301 27.0688 2.40493C 30.3146 0.825753 32.618 0 32.618 0Z"/>
<path id="path15_fill" fill-rule="evenodd" d="M 5.23051 10.8373C 3.61963 10.8373 2.01478 10.4214 1.03922 9.07123C 0.150975 7.83562 -0.177223 6.47342 0.0907555 5.12329C 0.554448 2.78767 2.66214 1.04575 4.35131 0L 5.9381 2.56164C 4.29109 3.58329 3.23724 4.73151 3.04152 5.71096C 2.97829 6.04548 2.9512 6.56986 3.48113 7.30822C 4.14957 8.24247 7.24788 7.73616 9.13276 7.02795L 10.1896 9.84877C 9.54526 10.0929 7.38638 10.8373 5.23051 10.8373Z"/>
<path id="path16_fill" fill-rule="evenodd" d="M 5.44182 11.3978C 2.93065 11.3978 1.56065 9.97534 0.859094 8.81507C -0.435632 6.67233 -0.908357 3.40548 4.19527 0L 5.86637 2.5074C 2.08758 5.02685 2.9969 6.5337 3.43349 7.25397C 4.43314 8.90548 6.64621 8.73973 10.0366 6.73863L 11.5662 9.33342C 9.00984 10.8433 7.00452 11.3978 5.44182 11.3978Z"/>
<path id="path17_fill" fill-rule="evenodd" d="M 3.12842 14.6226C 6.36523 14.725 13.9589 14.948 17.5601 14.948C 21.9772 14.948 22.4529 10.8645 22.4529 9.11051C 22.4529 5.13544 21.634 3.95106 18.8157 3.83352C 15.2717 3.68887 6.98851 3.30914 3.57404 3.14941L 3.12842 14.6226ZM 17.5601 17.9616C 12.884 17.9616 1.62593 17.5879 1.51453 17.5849L 0 17.5337L 0.683495 0L 2.19802 0.0693151C 2.19802 0.0693151 14.4256 0.63589 18.9391 0.82274C 25.4639 1.09699 25.4639 6.71151 25.4639 9.11041C 25.4639 14.4899 22.3626 17.9616 17.5601 17.9616Z"/>
<path id="path18_fill" fill-rule="evenodd" d="M 8.58734 13.1126L 0 13.1126L 0.990615 0L 9.64721 0.68411L 9.40934 3.69178L 3.76374 3.24575L 3.24886 10.0989L 8.58734 10.0989L 8.58734 13.1126Z"/>
</defs>
</svg>
