<svg width="30" height="31" viewBox="0 0 30 31" version="1.1" xmlns="http://www.w3.org/2000/svg" xmlns:xlink="http://www.w3.org/1999/xlink">
<title>telegram</title>
<desc>Created using Figma</desc>
<g id="Canvas" >
<g id="telegram">
<use xlink:href="#path0_fill"  fill="#FFFFFF"/>
</g>
</g>
<defs>
<path id="path0_fill" fill-rule="evenodd" d="M 25.07 7.853L 21.636 24.269C 21.475 25.04 20.571 25.386 19.937 24.92L 14.753 21.114L 12.11 23.812C 11.647 24.286 10.845 24.094 10.646 23.462L 8.73897 17.41L 3.62797 15.901C 2.95797 15.703 2.91797 14.768 3.56997 14.514L 23.681 6.677C 24.447 6.379 25.238 7.048 25.07 7.853ZM 15 0C 6.716 0 0 6.716 0 15C 0 23.285 6.716 30 15 30C 23.284 30 30 23.285 30 15C 30 6.716 23.284 0 15 0ZM 20.87 9.93101L 9.83902 16.773C 9.64402 16.893 9.55602 17.129 9.62402 17.348L 11.104 22.116C 11.135 22.216 11.281 22.202 11.292 22.098L 11.652 18.901C 11.666 18.777 11.725 18.663 11.818 18.581L 21.16 10.32C 21.384 10.122 21.124 9.77301 20.87 9.93101Z"/>
</defs>
</svg>
