<svg width="30" height="31" viewBox="0 0 30 31" version="1.1" xmlns="http://www.w3.org/2000/svg" xmlns:xlink="http://www.w3.org/1999/xlink">
<title>vk</title>
<desc>Created using Figma</desc>
<g id="Canvas" >
<g id="vk">
<use xlink:href="#path0_fill" fill="#FAC800"/>
</g>
</g>
<defs>
<path id="path0_fill" fill-rule="evenodd" d="M 22.608 16.622C 23.307 17.305 24.047 17.948 24.674 18.701C 24.952 19.034 25.215 19.379 25.414 19.766C 25.699 20.319 25.442 20.925 24.947 20.958L 21.874 20.957C 21.08 21.023 20.449 20.703 19.916 20.161C 19.491 19.728 19.097 19.266 18.688 18.819C 18.52 18.636 18.344 18.463 18.134 18.327C 17.715 18.054 17.352 18.138 17.112 18.575C 16.867 19.02 16.811 19.514 16.788 20.009C 16.754 20.734 16.536 20.923 15.809 20.957C 14.255 21.03 12.781 20.794 11.411 20.011C 10.203 19.321 9.26699 18.346 8.45199 17.241C 6.86499 15.09 5.64999 12.728 4.55699 10.298C 4.31199 9.75103 4.49099 9.45803 5.09499 9.44703C 6.09799 9.42703 7.10099 9.43003 8.10399 9.44603C 8.51199 9.45203 8.78199 9.68603 8.93899 10.071C 9.48099 11.404 10.145 12.673 10.978 13.85C 11.2 14.163 11.426 14.475 11.749 14.697C 12.105 14.941 12.376 14.86 12.544 14.463C 12.651 14.21 12.698 13.94 12.721 13.669C 12.801 12.742 12.81 11.815 12.672 10.892C 12.586 10.314 12.261 9.94103 11.685 9.83203C 11.392 9.77603 11.435 9.66803 11.577 9.50003C 11.825 9.21003 12.057 9.03103 12.521 9.03103L 15.993 9.03003C 16.54 9.13803 16.663 9.38303 16.737 9.93503L 16.74 13.793C 16.734 14.006 16.847 14.638 17.23 14.778C 17.537 14.879 17.739 14.633 17.923 14.439C 18.755 13.555 19.349 12.512 19.88 11.433C 20.114 10.957 20.317 10.465 20.513 9.97103C 20.659 9.60603 20.886 9.42703 21.298 9.43303L 24.641 9.43703C 24.74 9.43703 24.84 9.43803 24.937 9.45503C 25.501 9.55103 25.655 9.79303 25.48 10.343C 25.206 11.207 24.673 11.926 24.152 12.647C 23.593 13.419 22.998 14.164 22.445 14.94C 21.937 15.649 21.977 16.006 22.608 16.622ZM 15 0C 6.716 0 0 6.716 0 15C 0 23.284 6.716 29.999 15 29.999C 23.283 29.999 29.999 23.284 29.999 15C 29.999 6.716 23.283 0 15 0Z"/>
</defs>
</svg>
