<svg width="438" height="310" viewBox="0 0 438 310" version="1.1" xmlns="http://www.w3.org/2000/svg" xmlns:xlink="http://www.w3.org/1999/xlink">
<title>Page 1</title>
<desc>Created using Figma</desc>
<g id="Canvas" transform="translate(-1637 -4564)">
<g id="Page 1">
<g id="Fill 1">
<use xlink:href="#path0_fill" transform="translate(1705 4602.99)" fill="#FF2374"/>
</g>
<g id="Fill 2">
<use xlink:href="#path1_fill" transform="translate(1640.75 4682.7)" fill="#FF2374"/>
</g>
<g id="Fill 3">
<use xlink:href="#path2_fill" transform="translate(1672.95 4599.13)" fill="#FF2374"/>
</g>
<g id="Fill 4">
<use xlink:href="#path3_fill" transform="translate(1918.41 4568.36)" fill="#FF2374"/>
</g>
<g id="Fill 5">
<use xlink:href="#path4_fill" transform="translate(1944.45 4567.49)" fill="#FF2374"/>
</g>
<g id="Fill 6">
<use xlink:href="#path5_fill" transform="translate(1675.3 4604.84)" fill="#FF2374"/>
</g>
<g id="Fill 7">
<use xlink:href="#path6_fill" transform="translate(1720.79 4640.67)" fill="#FF2374"/>
</g>
<g id="Fill 8">
<use xlink:href="#path7_fill" transform="translate(1739.13 4567.08)" fill="#FF2374"/>
</g>
<g id="Fill 9">
<use xlink:href="#path8_fill" transform="translate(1981.79 4597.77)" fill="#FF2374"/>
</g>
<g id="Fill 10">
<use xlink:href="#path9_fill" transform="translate(1696.09 4568.09)" fill="#FF2374"/>
</g>
<g id="Fill 11">
<use xlink:href="#path10_fill" transform="translate(1692.9 4763.68)" fill="#D10B60"/>
</g>
<g id="Fill 12">
<use xlink:href="#path11_fill" transform="translate(1954.86 4769.8)" fill="#D10B60"/>
</g>
<g id="Fill 13">
<use xlink:href="#path12_fill" transform="translate(1741.41 4800.86)" fill="#D10B60"/>
</g>
<g id="Fill 14">
<use xlink:href="#path13_fill" transform="translate(1833.97 4670.25)" fill="#D10B60"/>
</g>
<g id="Fill 15">
<use xlink:href="#path14_fill" transform="translate(1933.84 4664.29)" fill="#D10B60"/>
</g>
<g id="Fill 16">
<use xlink:href="#path15_fill" transform="translate(2003.74 4661.17)" fill="#D10B60"/>
</g>
<g id="Fill 17">
<use xlink:href="#path16_fill" transform="translate(1750.7 4603)" fill="#D10B60"/>
</g>
<g id="Fill 18">
<use xlink:href="#path17_fill" transform="translate(1974.66 4803.88)" fill="#02105C"/>
</g>
<g id="Fill 19">
<use xlink:href="#path18_fill" transform="translate(1968.65 4801.29)" fill="#B60358"/>
</g>
<g id="Fill 20">
<use xlink:href="#path19_fill" transform="translate(1657.68 4765.53)" fill="#02105C"/>
</g>
<g id="Fill 21">
<use xlink:href="#path20_fill" transform="translate(1652.23 4763.33)" fill="#B60358"/>
</g>
<g id="Fill 22">
<use xlink:href="#path21_fill" transform="translate(1757.08 4839.17)" fill="#02105C"/>
</g>
<g id="Fill 23">
<use xlink:href="#path22_fill" transform="translate(1751.62 4836.66)" fill="#B60358"/>
</g>
<g id="Fill 24">
<use xlink:href="#path23_fill" transform="translate(1820.43 4772.21)" fill="#02105C"/>
</g>
<g id="Fill 25">
<use xlink:href="#path24_fill" transform="translate(1818.63 4769.76)" fill="#B60358"/>
</g>
<g id="Fill 26">
<use xlink:href="#path25_fill" transform="translate(1707.9 4802.94)" fill="#02105C"/>
</g>
<g id="Fill 27">
<use xlink:href="#path26_fill" transform="translate(1702.42 4800.58)" fill="#B60358"/>
</g>
<g id="Fill 28">
<use xlink:href="#path27_fill" transform="translate(1904.58 4663.4)" fill="#02105C"/>
</g>
<g id="Fill 29">
<use xlink:href="#path28_fill" transform="translate(1900.78 4659.57)" fill="#B60358"/>
</g>
<g id="Fill 30">
<use xlink:href="#path29_fill" transform="translate(2047.34 4725.34)" fill="#02105C"/>
</g>
<g id="Fill 31">
<use xlink:href="#path30_fill" transform="translate(2045.39 4723.21)" fill="#B60358"/>
</g>
<g id="Fill 32">
<use xlink:href="#path31_fill" transform="translate(1796.85 4669.86)" fill="#02105C"/>
</g>
<g id="Fill 33">
<use xlink:href="#path32_fill" transform="translate(1793.2 4666.02)" fill="#B60358"/>
</g>
<g id="Fill 34">
<use xlink:href="#path33_fill" transform="translate(2028.05 4763.28)" fill="#02105C"/>
</g>
<g id="Fill 35">
<use xlink:href="#path34_fill" transform="translate(2026.13 4760.87)" fill="#B60358"/>
</g>
<g id="Fill 36">
<use xlink:href="#path35_fill" transform="translate(1954.39 4599.97)" fill="#02105C"/>
</g>
<g id="Fill 37">
<use xlink:href="#path36_fill" transform="translate(1952.42 4598.36)" fill="#B60358"/>
</g>
<g id="Fill 38">
<use xlink:href="#path37_fill" transform="translate(1686.71 4641.84)" fill="#02105C"/>
</g>
<g id="Fill 39">
<use xlink:href="#path38_fill" transform="translate(1682.49 4640.12)" fill="#B60358"/>
</g>
<g id="Fill 40">
<use xlink:href="#path39_fill" transform="translate(1747.34 4603.88)" fill="#02105C"/>
</g>
<g id="Fill 41">
<use xlink:href="#path40_fill" transform="translate(1745.53 4602.27)" fill="#B60358"/>
</g>
<g id="Fill 42">
<use xlink:href="#path41_fill" transform="translate(1992.37 4629.97)" fill="#02105C"/>
</g>
<g id="Fill 43">
<use xlink:href="#path42_fill" transform="translate(1990.4 4628.2)" fill="#B60358"/>
</g>
<g id="Fill 44">
<use xlink:href="#path43_fill" transform="translate(1958.14 4599.45)" fill="#D10B60"/>
</g>
<g id="Fill 45">
<use xlink:href="#path44_fill" transform="translate(1917.19 4569.64)" fill="#FFFFFF"/>
</g>
<g id="Fill 46">
<use xlink:href="#path45_fill" transform="translate(1916.07 4567.75)" fill="#FFFFFF"/>
</g>
<g id="Fill 47">
<use xlink:href="#path46_fill" transform="translate(1981.36 4598.21)" fill="#FFFFFF"/>
</g>
<g id="Fill 48">
<use xlink:href="#path47_fill" transform="translate(1980.06 4597.15)" fill="#FFFFFF"/>
</g>
<g id="Fill 49">
<use xlink:href="#path48_fill" transform="translate(1804.23 4670.15)" fill="#FFFFFF"/>
</g>
<g id="Fill 50">
<use xlink:href="#path49_fill" transform="translate(1803.02 4669.06)" fill="#FFFFFF"/>
</g>
<g id="Fill 51">
<use xlink:href="#path50_fill" transform="translate(1705.49 4604.1)" fill="#FFFFFF"/>
</g>
<g id="Fill 52">
<use xlink:href="#path51_fill" transform="translate(1704.3 4603.06)" fill="#FFFFFF"/>
</g>
<g id="Fill 53">
<use xlink:href="#path52_fill" transform="translate(1720.62 4600.24)" fill="#FFFFFF"/>
</g>
<g id="Fill 54">
<use xlink:href="#path53_fill" transform="translate(1718.47 4599.2)" fill="#FFFFFF"/>
</g>
<g id="Fill 55">
<use xlink:href="#path54_fill" transform="translate(2006.05 4659.85)" fill="#FFFFFF"/>
</g>
<g id="Fill 56">
<use xlink:href="#path55_fill" transform="translate(2004.74 4658.78)" fill="#FFFFFF"/>
</g>
<g id="Fill 57">
<use xlink:href="#path56_fill" transform="translate(1739.61 4568.19)" fill="#FFFFFF"/>
</g>
<g id="Fill 58">
<use xlink:href="#path57_fill" transform="translate(1738.4 4567.16)" fill="#FFFFFF"/>
</g>
<g id="Fill 59">
<use xlink:href="#path58_fill" transform="translate(1696.58 4569.2)" fill="#FFFFFF"/>
</g>
<g id="Fill 60">
<use xlink:href="#path59_fill" transform="translate(1695.55 4567.16)" fill="#FFFFFF"/>
</g>
<g id="Fill 61">
<use xlink:href="#path60_fill" transform="translate(1911.27 4661.59)" fill="#FFFFFF"/>
</g>
<g id="Fill 62">
<use xlink:href="#path61_fill" transform="translate(1910.01 4660.53)" fill="#FFFFFF"/>
</g>
<g id="Fill 63">
<use xlink:href="#path62_fill" transform="translate(2002.52 4662.45)" fill="#FFFFFF"/>
</g>
<g id="Fill 64">
<use xlink:href="#path63_fill" transform="translate(2001.37 4660.59)" fill="#FFFFFF"/>
</g>
<g id="Fill 65">
<use xlink:href="#path64_fill" transform="translate(1943.23 4568.78)" fill="#FFFFFF"/>
</g>
<g id="Fill 66">
<use xlink:href="#path65_fill" transform="translate(1941.91 4567.75)" fill="#FFFFFF"/>
</g>
<g id="Fill 67">
<use xlink:href="#path66_fill" transform="translate(1639.16 4682.45)" fill="#FFFFFF"/>
</g>
<g id="Fill 68">
<use xlink:href="#path67_fill" transform="translate(1675.79 4606.53)" fill="#FFFFFF"/>
</g>
<g id="Fill 69">
<use xlink:href="#path68_fill" transform="translate(1674.7 4604.43)" fill="#FFFFFF"/>
</g>
<g id="Fill 70">
<use xlink:href="#path69_fill" transform="translate(1673.18 4680.74)" fill="#FFFFFF"/>
</g>
<g id="Fill 71">
<use xlink:href="#path70_fill" transform="translate(1672.02 4679.69)" fill="#FFFFFF"/>
</g>
<g id="Fill 72">
<use xlink:href="#path71_fill" transform="translate(1719.21 4663.99)" fill="#FFFFFF"/>
</g>
<g id="Fill 73">
<use xlink:href="#path72_fill" transform="translate(1718.08 4662.29)" fill="#FFFFFF"/>
</g>
<g id="Fill 74">
<use xlink:href="#path73_fill" transform="translate(1637 4677.66)" fill="#02105C"/>
</g>
<g id="Fill 75">
<use xlink:href="#path74_fill" transform="translate(1669.26 4564)" fill="#02105C"/>
</g>
<g id="Fill 76">
<use xlink:href="#path75_fill" transform="translate(1798.65 4689.83)" fill="#02105C"/>
</g>
<g id="Fill 77">
<use xlink:href="#path76_fill" transform="translate(1831.2 4666.85)" fill="#02105C"/>
</g>
<g id="Fill 78">
<use xlink:href="#path77_fill" transform="translate(1907.06 4683.02)" fill="#02105C"/>
</g>
<g id="Fill 79">
<use xlink:href="#path78_fill" transform="translate(1931.04 4660.01)" fill="#02105C"/>
</g>
<g id="Fill 80">
<use xlink:href="#path79_fill" transform="translate(1955.32 4595.84)" fill="#02105C"/>
</g>
<g id="Fill 81">
<use xlink:href="#path80_fill" transform="translate(1747.8 4599.73)" fill="#02105C"/>
</g>
<g id="Fill 82">
<use xlink:href="#path81_fill" transform="translate(1962.87 4803.18)" fill="#02105C"/>
</g>
<g id="Fill 83">
<use xlink:href="#path82_fill" transform="translate(1951.99 4766.42)" fill="#02105C"/>
</g>
<g id="Fill 84">
<use xlink:href="#path83_fill" transform="translate(1746.15 4840.42)" fill="#02105C"/>
</g>
<g id="Fill 85">
<use xlink:href="#path84_fill" transform="translate(1738.53 4797.38)" fill="#02105C"/>
</g>
<g id="Fill 86">
<use xlink:href="#path85_fill" transform="translate(1696.98 4803.48)" fill="#02105C"/>
</g>
<g id="Fill 87">
<use xlink:href="#path86_fill" transform="translate(1690.06 4760.2)" fill="#02105C"/>
</g>
<g id="Fill 88">
<use xlink:href="#path87_fill" transform="translate(1646.83 4765.4)" fill="#02105C"/>
</g>
<g id="Fill 89">
<use xlink:href="#path88_fill" transform="translate(1677.8 4639.13)" fill="#02105C"/>
</g>
<g id="Fill 90">
<use xlink:href="#path89_fill" transform="translate(1717.79 4636.78)" fill="#02105C"/>
</g>
</g>
</g>
<defs>
<path id="path0_fill" fill-rule="evenodd" d="M 0 0.759019L 5.35006 36.6216L 44.2159 34.9764L 44.261 34.9354L 38.4638 0L 0 0.759019Z"/>
<path id="path1_fill" fill-rule="evenodd" d="M 0 30.89L 8.67333 107.998L 40.5521 83.8777L 30.2336 0L 0 30.89Z"/>
<path id="path2_fill" fill-rule="evenodd" d="M 237.876 105.135L 229.096 66.2728L 294.975 61.9894L 295.34 61.7515L 296.452 63.4746L 295.673 63.9793L 304.535 99.1198L 237.876 105.135ZM 129.058 114.956L 121.476 73.272L 196.885 68.3691L 197.066 69.2348L 205.292 108.076L 129.058 114.956ZM 379.854 59.4455L 354.248 61.1277L 363.217 93.6219L 332.713 96.3708L 315.227 30.2377L 285.366 31.489L 277.432 0L 111.178 3.30686L 117.59 38.5253L 78.1543 40.1747L 91.1233 118.378L 47.1945 122.342L 47.0592 121.377L 41.1388 81.6745L 0 82.7618L 10.335 166.771L 55.1294 161.601L 61.5667 204.812L 104.449 198.723L 111.572 241.688L 150.885 235.029L 147.077 214.823L 147.213 214.802L 143.286 193.209L 321.931 167.846L 331.17 204.504L 360.087 199.61L 354.585 178.796L 350.617 163.788L 379.251 159.39L 369.823 125.25L 371.345 125.082L 397.931 122.013L 379.854 59.4455Z"/>
<path id="path3_fill" fill-rule="evenodd" d="M 0 21.4782L 1.45239 29.3309L 31.3782 28.736L 24.1409 0L 0 21.4782Z"/>
<path id="path4_fill" fill-rule="evenodd" d="M 0 0L 7.38915 29.3309L 34.9025 28.7894L 27.3042 0.0574393L 0 0Z"/>
<path id="path5_fill" fill-rule="evenodd" d="M 0 26.3523L 5.10799 59.8763L 33.0727 35.4236L 27.7842 0L 0 26.3523Z"/>
<path id="path6_fill" fill-rule="evenodd" d="M 40.8967 74.9869L 28.4653 0L 0 25.4046L 9.35439 77.8343L 40.8967 74.9869Z"/>
<path id="path7_fill" fill-rule="evenodd" d="M 0 0L 5.60443 33.8358L 42.1563 33.1137L 36.1498 0.0738505L 0 0Z"/>
<path id="path8_fill" fill-rule="evenodd" d="M 26.3482 0L 0 0.516953L 7.79943 30.0161L 34.1805 28.3627L 26.3482 0Z"/>
<path id="path9_fill" fill-rule="evenodd" d="M 0 37.8771L 0 40.5644L 7.30709 33.6348L 46.575 32.8594L 41.1265 0L 0 37.8771Z"/>
<path id="path10_fill" fill-rule="evenodd" d="M 0 24.2804L 6.61372 66.9167L 39.6495 40.9829L 33.5445 0L 0 24.2804Z"/>
<path id="path11_fill" fill-rule="evenodd" d="M 47.3423 34.6072L 38.6156 0L 0 26.3359L 10.3678 63.2283L 47.3423 34.6072Z"/>
<path id="path12_fill" fill-rule="evenodd" d="M 41.1511 40.7244L 34.3979 0L 0 26.0774L 7.27837 68.5907L 41.1511 40.7244Z"/>
<path id="path13_fill" fill-rule="evenodd" d="M 0 22.2659L 2.83504 38.632L 41.783 35.12L 34.3446 0L 0 22.2659Z"/>
<path id="path14_fill" fill-rule="evenodd" d="M 0 21.3715L 3.08531 35.559L 41.065 32.1332L 32.966 0L 0 21.3715Z"/>
<path id="path15_fill" fill-rule="evenodd" d="M 0 19.0534L 3.45866 32.1291L 29.7946 29.7535L 21.5807 0L 0 19.0534Z"/>
<path id="path16_fill" fill-rule="evenodd" d="M 37.393 32.7034L 31.4439 0L 0 31.0787L 0.529262 34.2461L 37.393 32.7034Z"/>
<path id="path17_fill" fill-rule="evenodd" d="M 29.7535 3.34379L 49.488 0L 18.5693 22.8444L 0 26.3687L 29.7535 3.34379Z"/>
<path id="path18_fill" fill-rule="evenodd" d="M 61.5954 0L 35.1282 4.48436L 0 31.6736L 25.2199 26.8857L 61.5954 0ZM 49.4018 5.18604L 23.9521 23.9933L 12.0253 26.258L 36.4 7.38924L 49.4018 5.18604Z"/>
<path id="path19_fill" fill-rule="evenodd" d="M 25.6959 3.97151L 60.0856 0L 33.1507 19.4965L 0 23.4147L 25.6959 3.97151Z"/>
<path id="path20_fill" fill-rule="evenodd" d="M 71.2042 0L 30.5536 4.69771L 0 27.8129L 39.1777 23.1849L 71.2042 0ZM 59.8682 4.40625L 38.0248 20.2226L 10.8971 23.4268L 31.7434 7.65567L 59.8682 4.40625Z"/>
<path id="path21_fill" fill-rule="evenodd" d="M 27.7021 5.23928L 58.6291 0L 30.0407 22.8772L 0 28.0263L 27.7021 5.23928Z"/>
<path id="path22_fill" fill-rule="evenodd" d="M 32.5024 6.2978L 0 33.0317L 36.158 26.8405L 69.6861 0L 32.5024 6.2978ZM 33.8235 9.19423L 58.4937 5.01758L 34.8533 23.9397L 10.9135 28.0425L 33.8235 9.19423Z"/>
<path id="path23_fill" fill-rule="evenodd" d="M 0 23.1603L 163.14 0L 132.291 21.0433L 3.01146 39.6946L 0 23.1603Z"/>
<path id="path24_fill" fill-rule="evenodd" d="M 171.263 0L 0 24.3132L 3.56123 43.8836L 134.662 24.9656L 171.263 0ZM 158.614 4.90283L 133.518 22.0197L 6.05987 40.4126L 3.60229 26.9103L 158.614 4.90283Z"/>
<path id="path25_fill" fill-rule="evenodd" d="M 26.7913 4.60335L 59.2158 0L 31.3741 21.1048L 0 25.6384L 26.7913 4.60335Z"/>
<path id="path26_fill" fill-rule="evenodd" d="M 70.3508 0L 31.6449 5.49365L 0 30.3361L 37.4668 24.9327L 70.3508 0ZM 59.0394 4.71436L 36.2401 21.9995L 10.9586 25.6469L 32.8963 8.42329L 59.0394 4.71436Z"/>
<path id="path27_fill" fill-rule="evenodd" d="M 59.8189 0L 0 3.88946L 4.18076 22.3931L 27.7719 20.7766L 59.8189 0Z"/>
<path id="path28_fill" fill-rule="evenodd" d="M 7.59021 10.5604L 10.3965 22.9755L 30.5659 21.5929L 52.0441 7.66797L 7.59021 10.5604ZM 5.5552 29.4745L 0 4.88644L 75.188 0L 32.5763 27.6283L 5.5552 29.4745Z"/>
<path id="path29_fill" fill-rule="evenodd" d="M 0 2.13756L 18.4954 0L 2.96633 12.8705L 0 2.13756Z"/>
<path id="path30_fill" fill-rule="evenodd" d="M 25.4292 0L 0 2.93761L 4.07408 17.6913L 25.4292 0ZM 15.48 4.24658L 5.77273 12.2881L 3.92236 5.57999L 15.48 4.24658Z"/>
<path id="path31_fill" fill-rule="evenodd" d="M 68.2994 0L 0 4.44334L 3.52021 23.7881L 35.6534 21.1664L 68.2994 0Z"/>
<path id="path32_fill" fill-rule="evenodd" d="M 7.29065 11.1267L 9.69489 24.3337L 38.2791 21.9992L 60.3727 7.67627L 7.29065 11.1267ZM 4.64027 30.9187L 0 5.43621L 83.5167 0L 40.3224 28.0098L 4.64027 30.9187Z"/>
<path id="path33_fill" fill-rule="evenodd" d="M 0 2.58477L 16.8051 0L 2.33039 11.3894L 0 2.58477Z"/>
<path id="path34_fill" fill-rule="evenodd" d="M 24.2804 0L 0 3.72945L 3.3643 16.4522L 24.2804 0ZM 13.1782 4.8208L 5.14487 11.1391L 3.84839 6.25268L 13.1782 4.8208Z"/>
<path id="path35_fill" fill-rule="evenodd" d="M 0 0.397972L 20.0258 0L 3.98793 16.2061L 0 0.397972Z"/>
<path id="path36_fill" fill-rule="evenodd" d="M 25.7492 0L 0 0.508748L 5.1244 20.8422L 25.7492 0ZM 18.2288 3.22461L 6.77789 14.7986L 3.93054 3.5077L 18.2288 3.22461Z"/>
<path id="path37_fill" fill-rule="evenodd" d="M 23.7634 1.35393L 55.8474 0L 31.9608 21.3141L 0 22.1346L 23.7634 1.35393Z"/>
<path id="path38_fill" fill-rule="evenodd" d="M 64.3073 0L 27.378 1.56317L 0 25.503L 36.7857 24.5594L 64.3073 0ZM 55.835 3.43799L 35.5795 21.5108L 8.43945 22.2083L 28.5883 4.59088L 55.835 3.43799Z"/>
<path id="path39_fill" fill-rule="evenodd" d="M 0 0.566187L 28.8017 0L 3.97562 24.5307L 0 0.566187Z"/>
<path id="path40_fill" fill-rule="evenodd" d="M 34.4307 0L 0 0.676963L 4.75515 29.3309L 34.4307 0ZM 26.7872 3.229L 6.81884 22.9635L 3.61865 3.68442L 26.7872 3.229Z"/>
<path id="path41_fill" fill-rule="evenodd" d="M 0 1.23494L 19.6812 0L 4.36949 17.761L 0 1.23494Z"/>
<path id="path42_fill" fill-rule="evenodd" d="M 25.2035 0L 0 1.57958L 5.60033 22.7418L 25.2035 0ZM 18.0974 3.52832L 7.08142 16.3127L 3.93457 4.41863L 18.0974 3.52832Z"/>
<path id="path43_fill" fill-rule="evenodd" d="M 0 22.069L 1.7601 29.0437L 29.212 27.895L 21.8351 0L 0 22.069Z"/>
<path id="path44_fill" fill-rule="evenodd" d="M 1.45239 29.3268L 4.93978 29.212L 3.40122 22.1592L 24.8343 2.74478L 24.1409 0L 0 21.4741L 1.45239 29.3268Z"/>
<path id="path45_fill" fill-rule="evenodd" d="M 2.22778 23.7511L 3.41349 30.1637L 4.78383 30.1227L 3.38067 23.6936L 24.8014 4.29146L 24.6742 3.78271L 2.22778 23.7511ZM 1.71497 32.2727L 0 22.988L 25.8354 0L 27.0949 4.98901L 5.64136 24.4158L 7.3153 32.0921L 1.71497 32.2727Z"/>
<path id="path46_fill" fill-rule="evenodd" d="M 6.99938 30.8531L 10.897 30.771L 3.46277 2.94992L 25.9831 2.40835L 25.5482 0.836972L 0 0L 6.99938 30.8531Z"/>
<path id="path47_fill" fill-rule="evenodd" d="M 2.58887 2.1377L 9.10822 30.8778L 10.8642 30.8409L 3.42994 3.0239L 18.5529 2.65875L 2.58887 2.1377ZM 7.47941 32.9619L 7.29068 32.1455L 0 0L 27.6324 0.898514L 28.6253 4.46385L 6.08446 5.00952L 13.5228 32.8347L 7.47941 32.9619Z"/>
<path id="path48_fill" fill-rule="evenodd" d="M 76.5419 39.7069L 68.3158 0.869794L 68.1353 0L 66.4285 0.110776L 74.4905 38.1684L 0 44.8888L 0.30771 46.5873L 76.5419 39.7069Z"/>
<path id="path49_fill" fill-rule="evenodd" d="M 0.676963 48.7782L 0 45.057L 74.4577 38.3366L 66.3916 0.250271L 70.1662 0L 78.9954 41.7091L 0.676963 48.7782Z"/>
<path id="path50_fill" fill-rule="evenodd" d="M 7.15939 36.5437L 2.0514 2.29757L 38.7264 1.57548L 38.4638 0L 0 0.759019L 5.35006 36.6216L 7.15939 36.5437Z"/>
<path id="path51_fill" fill-rule="evenodd" d="M 5.65777 38.7223L 0 0.795944L 40.5152 0L 41.1183 3.61457L 4.42282 4.33666L 9.52671 38.5623L 5.65777 38.7223Z"/>
<path id="path52_fill" fill-rule="evenodd" d="M 66.0469 4.84541L 230.643 1.57137L 230.245 0L 63.9955 3.30686L 70.4041 38.5253L 30.8572 38.7879L 31.1813 40.3306L 31.1362 40.3716L 31.0049 40.3798L 43.4651 117.422L 0 121.784L 0.0861589 121.87L 2.06371 123.88L 48.2941 119.818L 34.2789 42.0332L 72.4555 40.0639L 66.0469 4.84541Z"/>
<path id="path53_fill" fill-rule="evenodd" d="M 4.37769 123.63L 4.60334 123.859L 49.2295 119.941L 35.2103 42.111L 63.4663 40.6504L 34.2625 40.8473L 34.4512 41.7376L 34.2666 41.9058L 46.7966 119.379L 4.37769 123.63ZM 3.81561 125.989L 0 122.108L 2.0432 121.804L 44.4252 117.554L 31.9567 40.466L 32.0839 40.4618L 31.7393 38.8125L 71.3231 38.5499L 64.9146 3.34789L 233.187 0L 234.098 3.61457L 232.809 3.63919L 69.4194 6.88861L 75.8198 42.0701L 37.635 44.0436L 51.6461 121.784L 3.81561 125.989Z"/>
<path id="path54_fill" fill-rule="evenodd" d="M 28.896 34.1764L 0 36.7816L 0.443103 38.4638L 33.6512 35.2431L 24.7645 2.9335L 46.0088 1.64522L 45.537 0L 19.9273 1.68625L 28.896 34.1764Z"/>
<path id="path55_fill" fill-rule="evenodd" d="M 22.5531 3.70063L 31.3659 35.6369L 33.6389 35.4153L 24.8753 3.54883L 22.5531 3.70063ZM 0.976467 40.6465L 0 36.9457L 28.8837 34.3446L 19.9068 1.81754L 47.5966 0L 48.6552 3.6638L 27.3944 4.95619L 36.2688 37.2206L 0.976467 40.6465Z"/>
<path id="path56_fill" fill-rule="evenodd" d="M 7.39736 33.7989L 2.0514 1.53855L 36.4288 1.6083L 36.1498 0.0738505L 0 0L 5.60853 33.8358L 7.39736 33.7989Z"/>
<path id="path57_fill" fill-rule="evenodd" d="M 5.94907 35.9077L 5.80136 35.0338L 0 0L 38.2135 0.0820561L 38.8659 3.67201L 4.47206 3.59816L 9.8098 35.8298L 5.94907 35.9077Z"/>
<path id="path58_fill" fill-rule="evenodd" d="M 41.1265 0L 0 37.8771L 0 40.5644L 7.30709 33.6348L 8.34921 33.6143L 41.6188 2.97453L 41.1265 0Z"/>
<path id="path59_fill" fill-rule="evenodd" d="M 41.4547 4.07812L 8.25891 34.6481L 8.9687 34.6358L 41.545 4.63611L 41.4547 4.07812ZM 0 44.9954L 0 39.469L 0.33643 39.1654L 42.8579 0L 43.7523 5.39519L 43.342 5.76854L 9.78519 36.6709L 8.75128 36.6914L 0 44.9954Z"/>
<path id="path60_fill" fill-rule="evenodd" d="M 55.6012 0.172318L 64.9884 37.9386L 0 43.8015L 0.381561 45.4919L 68.9353 39.3213L 59.0188 0L 55.6012 0.172318Z"/>
<path id="path61_fill" fill-rule="evenodd" d="M 58.1572 2.19504L 67.4542 39.6003L 68.9025 39.469L 59.4906 2.12939L 58.1572 2.19504ZM 0.836972 47.6541L 0 43.9492L 64.9638 38.0863L 55.5602 0.270785L 61.0702 0L 71.4831 41.2947L 0.836972 47.6541Z"/>
<path id="path62_fill" fill-rule="evenodd" d="M 21.5807 0L 0 19.0534L 3.45866 32.1291L 7.26196 31.7926L 3.84433 18.9714L 22.3234 2.69144L 21.5807 0Z"/>
<path id="path63_fill" fill-rule="evenodd" d="M 2.30579 21.2606L 5.37879 32.8879L 7.11017 32.7361L 3.84023 20.481L 22.3193 4.20933L 22.1798 3.71289L 2.30579 21.2606ZM 3.84022 35.0831L 0 20.5633L 23.2834 0L 24.6332 4.89875L 6.1501 21.1746L 9.72365 34.562L 3.84022 35.0831Z"/>
<path id="path64_fill" fill-rule="evenodd" d="M 7.38915 29.3309L 11.0776 29.1791L 3.89766 1.87088L 27.7103 1.59189L 27.3042 0.0574393L 0 0L 7.38915 29.3309Z"/>
<path id="path65_fill" fill-rule="evenodd" d="M 2.63806 2.05957L 9.49795 29.3022L 11.0816 29.2365L 3.93455 2.05957L 2.63806 2.05957ZM 7.91841 31.4152L 0 0L 29.413 0.0615421L 30.3649 3.63098L 6.54397 3.90997L 13.7157 31.1854L 7.91841 31.4152Z"/>
<path id="path66_fill" fill-rule="evenodd" d="M 0 31.5383L 8.20971 110.263L 14.1054 106.927L 5.89983 32.0511L 33.0809 5.63725L 31.0295 0L 0 31.5383Z"/>
<path id="path67_fill" fill-rule="evenodd" d="M 6.71219 57.8988L 2.0514 27.3165L 28.2437 2.47809L 27.8744 0L 22.8403 4.77566L 22.8403 4.11922L 0 25.7779L 5.10799 59.3019L 6.71219 57.8988Z"/>
<path id="path68_fill" fill-rule="evenodd" d="M 2.18677 28.2521L 2.27293 28.8265L 22.9059 9.26026L 22.9059 8.60791L 2.18677 28.2521ZM 5.46904 63.4047L 0 27.497L 24.9574 3.83202L 24.9574 4.48847L 29.692 0L 30.4305 4.95208L 4.2382 29.7905L 8.90308 60.4015L 5.46904 63.4047Z"/>
<path id="path69_fill" fill-rule="evenodd" d="M 14.3598 84.7475L 3.97562 4.16435L 41.6311 2.76119L 41.5409 0L 0 1.0257L 10.5893 86.2738L 14.3598 84.7475Z"/>
<path id="path70_fill" fill-rule="evenodd" d="M 2.31396 3.07295L 12.5997 85.8757L 14.3967 85.1454L 3.96739 4.23404L 41.7255 2.82268L 41.705 2.10059L 2.31396 3.07295ZM 10.8929 88.7765L 0 1.07904L 43.6908 0L 43.8426 4.79618L 6.2937 6.19934L 16.6328 86.4502L 10.8929 88.7765Z"/>
<path id="path71_fill" fill-rule="evenodd" d="M 3.54893 0L 13.3341 53.5949L 9.57594 54.9612L 0 2.30578L 3.54893 0Z"/>
<path id="path72_fill" fill-rule="evenodd" d="M 2.26062 4.49652L 11.496 55.281L 13.2972 54.6246L 3.94277 3.39697L 2.26062 4.49652ZM 9.90827 58.0383L 0 3.52021L 5.4116 0L 15.6317 55.9622L 9.90827 58.0383Z"/>
<path id="path73_fill" fill-rule="evenodd" d="M 32.884 1.22264L 0 34.8205L 9.26823 117.221L 52.5405 112.105L 59.5235 157.146L 101.081 151.147L 108.778 196.069L 151.549 188.737L 189.755 158.163L 186.115 138.876L 314.656 120.327L 325.652 159.472L 357.145 153.494L 399.125 122.727L 389.303 85.5722L 385.331 86.6184L 394.444 121.082L 355.922 149.551L 328.589 154.737L 317.631 115.752L 181.291 135.425L 185.266 156.506L 149.81 184.872L 112.126 191.334L 104.457 146.515L 62.9575 152.505L 55.9828 107.571L 12.8787 112.659L 4.29153 36.2975L 34.6564 5.27621L 77.4199 4.1028L 77.305 0L 32.884 1.22264Z"/>
<path id="path74_fill" fill-rule="evenodd" d="M 67.3393 0L 23.2301 40.6178L 23.2301 46.1606L 2.23603 66.0757L 8.13996 104.814L 48.1874 103.793L 57.0987 153.773L 52.9836 154.146L 46.9525 113.652L 1.4606 114.858L 1.52214 117.143L 0 117.332L 10.8232 205.308L 55.6915 200.122L 62.1411 243.415L 105.069 237.323L 112.203 280.365L 155.595 273.017L 155.254 270.994L 157.273 270.625L 150.056 230.935L 322.788 206.408L 332.052 243.14L 364.871 237.585L 364.534 235.562L 366.516 235.037L 361.445 215.869L 386.135 196.446L 381.446 179.44L 405.082 159.858L 385.29 91.3366L 355.262 93.3183L 333.94 112.138L 327.986 89.6093L 349.94 64.1514L 340.68 30.6356L 312.47 31.1936L 304.346 0.475925L 272.574 0.414383L 245.29 24.6866L 246.775 32.7281L 114.476 35.3539L 108.06 0.0779533L 67.3393 0ZM 70.5559 4.10693L 104.642 4.17258L 110.279 35.1857L 75.8239 35.8667L 70.5559 4.10693ZM 275.987 4.52148L 301.191 4.57072L 308.252 31.2841L 282.856 31.7805L 275.987 4.52148ZM 66.7321 6.12939L 71.6801 35.9486L 33.5404 36.6994L 66.7321 6.12939ZM 249.742 26.213L 272.188 6.24463L 278.699 32.0882L 250.936 32.6421L 249.742 26.213ZM 313.327 35.2842L 337.575 34.8042L 344.861 61.1811L 320.577 62.7033L 313.327 35.2842ZM 283.959 35.8625L 309.109 35.3701L 316.244 62.3748L 290.905 63.4374L 283.959 35.8625ZM 95.4804 154.43L 82.5238 76.2753L 121.972 74.6137L 115.568 39.4362L 279.803 36.1704L 287.742 67.6758L 317.606 66.4245L 335.105 132.599L 367.706 129.665L 358.741 97.2037L 382.262 95.6529L 399.773 156.259L 371.681 159.492L 381.118 193.681L 352.496 198.071L 361.974 233.913L 335.105 238.463L 325.869 201.825L 145.256 227.476L 152.87 269.316L 115.58 275.631L 108.458 232.695L 65.5956 238.783L 59.1624 195.597L 14.3926 200.763L 4.32434 118.887L 43.4282 117.849L 49.488 158.573L 95.4804 154.43ZM 76.9604 39.9448L 111.367 39.272L 117.094 70.7241L 82.3105 72.1806L 76.9604 39.9448ZM 36.4042 40.7489L 72.8166 40.0269L 78.2856 72.9806L 41.4424 74.5437L 36.4042 40.7489ZM 6.61377 67.5689L 32.5845 42.9438L 37.9305 78.7982L 78.4949 77.0833L 90.713 150.741L 61.1975 153.404L 51.6092 99.6036L 11.6479 100.625L 6.61377 67.5689ZM 321.931 66.7319L 343.462 65.3779L 326.715 84.8006L 321.931 66.7319ZM 335.113 116.573L 354.991 99.0254L 362.438 126.014L 338.19 128.2L 335.113 116.573ZM 376.916 163.029L 397.722 160.625L 380.248 175.108L 376.916 163.029ZM 357.629 201.439L 376.925 198.473L 360.304 211.549L 357.629 201.439ZM 231 100.453L 240.24 141.362L 308.986 135.163L 299.119 96.0264L 231 100.453ZM 236.059 104.236L 295.976 100.342L 303.833 131.507L 243.452 136.956L 236.059 104.236ZM 123.421 107.448L 131.38 151.188L 209.702 144.119L 200.869 102.414L 123.421 107.448ZM 128.286 111.248L 197.591 106.739L 204.734 140.447L 134.748 146.762L 128.286 111.248Z"/>
<path id="path75_fill" fill-rule="evenodd" d="M 34.7261 20.3253L 31.969 4.39L 0.33643 6.97477L 0 2.88837L 35.3744 0L 38.7715 19.6278L 34.7261 20.3253Z"/>
<path id="path76_fill" fill-rule="evenodd" d="M 2.23603 26.8898L 0 23.4434L 36.1662 0L 38.3981 3.44636L 2.23603 26.8898Z"/>
<path id="path77_fill" fill-rule="evenodd" d="M 26.5164 18.3313L 23.4762 4.33666L 0.278991 5.92445L 0 1.82985L 26.7298 0L 30.5249 17.4574L 26.5164 18.3313Z"/>
<path id="path78_fill" fill-rule="evenodd" d="M 2.23603 26.8939L 0 23.4475L 36.1621 0L 38.394 3.44636L 2.23603 26.8939Z"/>
<path id="path79_fill" fill-rule="evenodd" d="M 2.91709 26.5123L 0 23.628L 23.3778 0L 26.2949 2.88427L 2.91709 26.5123Z"/>
<path id="path80_fill" fill-rule="evenodd" d="M 2.88427 35.2841L 0 32.367L 32.7445 0L 35.6287 2.91709L 2.88427 35.2841Z"/>
<path id="path81_fill" fill-rule="evenodd" d="M 2.50681 33.2081L 0 29.9628L 38.71 0L 41.2209 3.24532L 2.50681 33.2081Z"/>
<path id="path82_fill" fill-rule="evenodd" d="M 2.30988 30.9721L 0 27.5831L 40.4413 0L 42.7471 3.38892L 2.30988 30.9721Z"/>
<path id="path83_fill" fill-rule="evenodd" d="M 0 29.3638L 2.60528 32.527L 38.3038 3.16736L 35.6944 0L 0 29.3638Z"/>
<path id="path84_fill" fill-rule="evenodd" d="M 2.47809 30.7505L 0 27.4806L 36.2483 0L 38.7264 3.26993L 2.47809 30.7505Z"/>
<path id="path85_fill" fill-rule="evenodd" d="M 2.53143 30.6151L 0 27.3862L 34.882 0L 37.4135 3.22891L 2.53143 30.6151Z"/>
<path id="path86_fill" fill-rule="evenodd" d="M 2.40424 28.9658L 0 25.6384L 35.4195 0L 37.8237 3.32737L 2.40424 28.9658Z"/>
<path id="path87_fill" fill-rule="evenodd" d="M 2.47809 28.8304L 0 25.5605L 33.7907 0L 36.2647 3.26993L 2.47809 28.8304Z"/>
<path id="path88_fill" fill-rule="evenodd" d="M 2.69964 29.1381L 0 26.0528L 29.7946 0L 32.4942 3.08531L 2.69964 29.1381Z"/>
<path id="path89_fill" fill-rule="evenodd" d="M 2.73247 30.451L 0 27.3903L 30.6849 0L 33.4173 3.06069L 2.73247 30.451Z"/>
</defs>
</svg>
