<svg width="312" height="236" viewBox="0 0 312 236" version="1.1" xmlns="http://www.w3.org/2000/svg" xmlns:xlink="http://www.w3.org/1999/xlink">
<title>Page 1</title>
<desc>Created using Figma</desc>
<g id="Canvas" transform="translate(-1324 -4964)">
<g id="Page 1">
<g id="Fill 1">
<use xlink:href="#path0_fill" transform="translate(1439.16 5109.66)" fill="#009400"/>
</g>
<g id="Fill 2">
<use xlink:href="#path1_fill" transform="translate(1504.76 5116.87)" fill="#02105C"/>
</g>
<g id="Fill 3">
<use xlink:href="#path2_fill" transform="translate(1498.9 5114.97)" fill="#009400"/>
</g>
<g id="Fill 4">
<use xlink:href="#path3_fill" transform="translate(1606.67 5094.38)" fill="#009400"/>
</g>
<g id="Fill 5">
<use xlink:href="#path4_fill" transform="translate(1490.54 5115.11)" fill="#009400"/>
</g>
<g id="Fill 6">
<use xlink:href="#path5_fill" transform="translate(1407.82 5106.39)" fill="#02105C"/>
</g>
<g id="Fill 7">
<use xlink:href="#path6_fill" transform="translate(1401.52 5104.44)" fill="#009400"/>
</g>
<g id="Fill 8">
<use xlink:href="#path7_fill" transform="translate(1348.04 5099.74)" fill="#009400"/>
</g>
<g id="Fill 9">
<use xlink:href="#path8_fill" transform="translate(1561.43 5123)" fill="#02105C"/>
</g>
<g id="Fill 10">
<use xlink:href="#path9_fill" transform="translate(1554.17 5120.94)" fill="#009400"/>
</g>
<g id="Fill 11">
<use xlink:href="#path10_fill" transform="translate(1453.29 5111.31)" fill="#02105C"/>
</g>
<g id="Fill 12">
<use xlink:href="#path11_fill" transform="translate(1447.81 5109.45)" fill="#009400"/>
</g>
<g id="Fill 13">
<use xlink:href="#path12_fill" transform="translate(1391.87 5104.47)" fill="#009400"/>
</g>
<g id="Group 173">
<g id="Fill 14">
<use xlink:href="#path13_fill" transform="translate(1401.4 5048.09)" fill="#009400"/>
</g>
<g id="Fill 16">
<use xlink:href="#path14_fill" transform="translate(1364.97 5101.76)" fill="#02105C"/>
</g>
<g id="Fill 18">
<use xlink:href="#path15_fill" transform="translate(1358.3 5099.77)" fill="#009400"/>
</g>
<g id="Fill 20">
<use xlink:href="#path16_fill" transform="translate(1472.57 5052.67)" fill="#009400"/>
</g>
<g id="Fill 22">
<use xlink:href="#path17_fill" transform="translate(1327.31 4994.29)" fill="#00A600"/>
</g>
<g id="Fill 24">
<use xlink:href="#path18_fill" transform="translate(1552.67 5027.38)" fill="#009400"/>
</g>
<g id="Fill 26">
<use xlink:href="#path19_fill" transform="translate(1480.76 5053.49)" fill="#02105C"/>
</g>
<g id="Fill 28">
<use xlink:href="#path20_fill" transform="translate(1476.98 5051.99)" fill="#009400"/>
</g>
<g id="Fill 30">
<use xlink:href="#path21_fill" transform="translate(1545.52 5120.87)" fill="#009400"/>
</g>
<g id="Fill 32">
<use xlink:href="#path22_fill" transform="translate(1410.29 5049.21)" fill="#02105C"/>
</g>
<g id="Fill 34">
<use xlink:href="#path23_fill" transform="translate(1406.52 5047.71)" fill="#009400"/>
</g>
<g id="Fill 36">
<use xlink:href="#path24_fill" transform="translate(1391.68 5160.99)" fill="#FFC900"/>
</g>
<g id="Fill 38">
<use xlink:href="#path25_fill" transform="translate(1384.16 5018.12)" fill="#FFC900"/>
</g>
<g id="Fill 40">
<use xlink:href="#path26_fill" transform="translate(1408.95 4992.57)" fill="#FFC900"/>
</g>
<g id="Fill 42">
<use xlink:href="#path27_fill" transform="translate(1545.4 5185.02)" fill="#FFC900"/>
</g>
<g id="Fill 44">
<use xlink:href="#path28_fill" transform="translate(1490.39 5176.42)" fill="#FFC900"/>
</g>
<g id="Fill 46">
<use xlink:href="#path29_fill" transform="translate(1438.99 5168.39)" fill="#FFC900"/>
</g>
<g id="Fill 48">
<use xlink:href="#path30_fill" transform="translate(1503.75 4996.41)" fill="#009400"/>
</g>
<g id="Fill 50">
<use xlink:href="#path31_fill" transform="translate(1430.24 4995.15)" fill="#009400"/>
</g>
<g id="Fill 52">
<use xlink:href="#path32_fill" transform="translate(1456.45 4968.45)" fill="#009400"/>
</g>
<g id="Fill 54">
<use xlink:href="#path33_fill" transform="translate(1440.72 4996.07)" fill="#02105C"/>
</g>
<g id="Fill 56">
<use xlink:href="#path34_fill" transform="translate(1435.59 4994.71)" fill="#009400"/>
</g>
<g id="Fill 58">
<use xlink:href="#path35_fill" transform="translate(1433.1 4967.57)" fill="#00A600"/>
</g>
<g id="Fill 60">
<use xlink:href="#path36_fill" transform="translate(1506.22 4967.18)" fill="#00A600"/>
</g>
<g id="Fill 62">
<use xlink:href="#path37_fill" transform="translate(1513.52 4997.27)" fill="#02105C"/>
</g>
<g id="Fill 64">
<use xlink:href="#path38_fill" transform="translate(1508.59 4995.93)" fill="#009400"/>
</g>
<g id="Fill 66">
<use xlink:href="#path39_fill" transform="translate(1532.46 4968.19)" fill="#009400"/>
</g>
<g id="Fill 68">
<use xlink:href="#path40_fill" transform="translate(1575.52 5124.3)" fill="#FFFFFF"/>
</g>
<g id="Fill 70">
<use xlink:href="#path41_fill" transform="translate(1574.63 5123.37)" fill="#FFFFFF"/>
</g>
<g id="Fill 72">
<use xlink:href="#path42_fill" transform="translate(1516.99 5118.05)" fill="#FFFFFF"/>
</g>
<g id="Fill 74">
<use xlink:href="#path43_fill" transform="translate(1516.09 5117.12)" fill="#FFFFFF"/>
</g>
<g id="Fill 76">
<use xlink:href="#path44_fill" transform="translate(1464.27 5112.41)" fill="#FFFFFF"/>
</g>
<g id="Fill 78">
<use xlink:href="#path45_fill" transform="translate(1463.35 5111.48)" fill="#FFFFFF"/>
</g>
<g id="Fill 80">
<use xlink:href="#path46_fill" transform="translate(1490.13 5177.61)" fill="#FFFFFF"/>
</g>
<g id="Fill 82">
<use xlink:href="#path47_fill" transform="translate(1489.29 5176.64)" fill="#FFFFFF"/>
</g>
<g id="Fill 84">
<use xlink:href="#path48_fill" transform="translate(1503.33 5025.6)" fill="#FFFFFF"/>
</g>
<g id="Fill 86">
<use xlink:href="#path49_fill" transform="translate(1502.41 5024.73)" fill="#FFFFFF"/>
</g>
<g id="Fill 88">
<use xlink:href="#path50_fill" transform="translate(1552.29 5089.94)" fill="#FFFFFF"/>
</g>
<g id="Fill 90">
<use xlink:href="#path51_fill" transform="translate(1551.39 5089.03)" fill="#FFFFFF"/>
</g>
<g id="Fill 92">
<use xlink:href="#path52_fill" transform="translate(1429.8 4996.65)" fill="#FFFFFF"/>
</g>
<g id="Fill 94">
<use xlink:href="#path53_fill" transform="translate(1428.86 4995.8)" fill="#FFFFFF"/>
</g>
<g id="Fill 96">
<use xlink:href="#path54_fill" transform="translate(1505.96 4968.36)" fill="#FFFFFF"/>
</g>
<g id="Fill 98">
<use xlink:href="#path55_fill" transform="translate(1505.04 4967.52)" fill="#FFFFFF"/>
</g>
<g id="Fill 100">
<use xlink:href="#path56_fill" transform="translate(1369.41 5102.26)" fill="#FFFFFF"/>
</g>
<g id="Fill 102">
<use xlink:href="#path57_fill" transform="translate(1368.48 5101.33)" fill="#FFFFFF"/>
</g>
<g id="Fill 104">
<use xlink:href="#path58_fill" transform="translate(1438.73 5169.57)" fill="#FFFFFF"/>
</g>
<g id="Fill 106">
<use xlink:href="#path59_fill" transform="translate(1437.98 5168.74)" fill="#FFFFFF"/>
</g>
<g id="Fill 108">
<use xlink:href="#path60_fill" transform="translate(1414.91 5107.13)" fill="#FFFFFF"/>
</g>
<g id="Fill 110">
<use xlink:href="#path61_fill" transform="translate(1413.99 5106.2)" fill="#FFFFFF"/>
</g>
<g id="Fill 112">
<use xlink:href="#path27_fill" transform="translate(1545.14 5186.2)" fill="#FFFFFF"/>
</g>
<g id="Fill 114">
<use xlink:href="#path62_fill" transform="translate(1544.29 5185.24)" fill="#FFFFFF"/>
</g>
<g id="Fill 116">
<use xlink:href="#path63_fill" transform="translate(1391.41 5162.18)" fill="#FFFFFF"/>
</g>
<g id="Fill 118">
<use xlink:href="#path59_fill" transform="translate(1390.66 5161.34)" fill="#FFFFFF"/>
</g>
<g id="Fill 120">
<use xlink:href="#path64_fill" transform="translate(1327.05 4995.48)" fill="#FFFFFF"/>
</g>
<g id="Fill 122">
<use xlink:href="#path65_fill" transform="translate(1326.11 4994.63)" fill="#FFFFFF"/>
</g>
<g id="Fill 124">
<use xlink:href="#path66_fill" transform="translate(1383.9 5019.3)" fill="#FFFFFF"/>
</g>
<g id="Fill 126">
<use xlink:href="#path67_fill" transform="translate(1382.88 5018.45)" fill="#FFFFFF"/>
</g>
<g id="Fill 128">
<use xlink:href="#path68_fill" transform="translate(1408.69 4993.75)" fill="#FFFFFF"/>
</g>
<g id="Fill 130">
<use xlink:href="#path69_fill" transform="translate(1407.67 4992.91)" fill="#FFFFFF"/>
</g>
<g id="Fill 132">
<use xlink:href="#path70_fill" transform="translate(1432.83 4968.75)" fill="#FFFFFF"/>
</g>
<g id="Fill 134">
<use xlink:href="#path71_fill" transform="translate(1431.9 4967.91)" fill="#FFFFFF"/>
</g>
<g id="Fill 136">
<use xlink:href="#path72_fill" transform="translate(1324.06 4991.73)" fill="#02105C"/>
</g>
<g id="Stroke 138">
<use xlink:href="#path72_fill" transform="translate(1324.06 4991.73)" fill="#02105C"/>
</g>
<g id="Group 142">
<g id="Fill 140">
<use xlink:href="#path73_fill" transform="translate(1429.86 4964.64)" fill="#02105C"/>
</g>
</g>
<g id="Fill 143">
<use xlink:href="#path74_fill" transform="translate(1503.03 4964.64)" fill="#02105C"/>
</g>
<g id="Fill 145">
<use xlink:href="#path75_fill" transform="translate(1346.41 5151.51)" fill="#02105C"/>
</g>
<g id="Fill 147">
<use xlink:href="#path76_fill" transform="translate(1490.89 5065.74)" fill="#02105C"/>
</g>
<g id="Fill 149">
<use xlink:href="#path77_fill" transform="translate(1472.95 5049.7)" fill="#02105C"/>
</g>
<g id="Fill 151">
<use xlink:href="#path78_fill" transform="translate(1420.51 5061.52)" fill="#02105C"/>
</g>
<g id="Fill 153">
<use xlink:href="#path77_fill" transform="translate(1402.57 5045.48)" fill="#02105C"/>
</g>
<g id="Fill 155">
<use xlink:href="#path79_fill" transform="translate(1530.23 4994.05)" fill="#02105C"/>
</g>
<g id="Fill 157">
<use xlink:href="#path80_fill" transform="translate(1504.04 4993.57)" fill="#02105C"/>
</g>
<g id="Fill 159">
<use xlink:href="#path81_fill" transform="translate(1454.3 4992.74)" fill="#02105C"/>
</g>
<g id="Fill 161">
<use xlink:href="#path82_fill" transform="translate(1430.93 4992.33)" fill="#02105C"/>
</g>
<g id="Fill 163">
<use xlink:href="#path83_fill" transform="translate(1493.72 5112.24)" fill="#02105C"/>
</g>
<g id="Fill 165">
<use xlink:href="#path84_fill" transform="translate(1548.17 5118.05)" fill="#02105C"/>
</g>
<g id="Fill 167">
<use xlink:href="#path85_fill" transform="translate(1442.85 5106.76)" fill="#02105C"/>
</g>
<g id="Fill 169">
<use xlink:href="#path86_fill" transform="translate(1396.08 5101.65)" fill="#02105C"/>
</g>
<g id="Fill 171">
<use xlink:href="#path87_fill" transform="translate(1352.66 5096.94)" fill="#02105C"/>
</g>
</g>
</g>
</g>
<defs>
<path id="path0_fill" fill-rule="evenodd" d="M 0 57.0472L 23.591 60.7357L 27.9302 14.3393L 5.70134 0L 0 57.0472Z"/>
<path id="path1_fill" fill-rule="evenodd" d="M 0 0L 14.2854 1.54756L 13.7797 7.90973L 0 0Z"/>
<path id="path2_fill" fill-rule="evenodd" d="M 0 0L 20.7386 11.9051L 21.504 2.32639L 0 0ZM 11.7163 3.81006L 18.7899 4.57541L 18.537 7.72447L 11.7163 3.81006Z"/>
<path id="path3_fill" fill-rule="evenodd" d="M 0 98.5109L 21.2612 101.977L 27.0704 15.2935L 5.54288 0L 0 98.5109Z"/>
<path id="path4_fill" fill-rule="evenodd" d="M 0 59.6298L 24.9531 63.5307L 28.9147 14.0662L 5.17875 0L 0 59.6298Z"/>
<path id="path5_fill" fill-rule="evenodd" d="M 0 0L 10.1485 1.09914L 9.71016 5.21921L 0 0Z"/>
<path id="path6_fill" fill-rule="evenodd" d="M 0 0L 17.0737 9.17745L 17.8424 1.92854L 0 0ZM 12.6097 3.90771L 15.0643 4.1707L 14.9564 5.16869L 12.6097 3.90771Z"/>
<path id="path7_fill" fill-rule="evenodd" d="M 0 52.7248L 19.835 55.8233L 25.2835 9.61575L 6.50715 0L 0 52.7248Z"/>
<path id="path8_fill" fill-rule="evenodd" d="M 0 0L 15.4587 1.66893L 15.1013 7.18484L 0 0Z"/>
<path id="path9_fill" fill-rule="evenodd" d="M 0 0L 23.4999 11.1835L 24.063 2.59949L 0 0ZM 14.5248 4.11328L 21.3792 4.85503L 21.2207 7.29943L 14.5248 4.11328Z"/>
<path id="path10_fill" fill-rule="evenodd" d="M 0 0L 13.574 1.47001L 12.9738 7.91647L 0 0Z"/>
<path id="path11_fill" fill-rule="evenodd" d="M 0 0L 19.5248 11.9118L 20.4318 2.20839L 0 0ZM 10.9678 3.729L 17.684 4.45389L 17.3839 7.64341L 10.9678 3.729Z"/>
<path id="path12_fill" fill-rule="evenodd" d="M 0 54.8455L 21.5208 58.2104L 26.5344 10.9576L 6.14639 0L 0 54.8455Z"/>
<path id="path13_fill" fill-rule="evenodd" d="M 20.5464 27.9268C 20.86 23.918 21.5276 16.5275 21.6354 15.3272L 21.5309 15.4553L 2.93665 0L 0 26.1904L 20.5464 27.9268Z"/>
<path id="path14_fill" fill-rule="evenodd" d="M 0 0L 7.87602 0.849639L 7.522 3.85035L 0 0Z"/>
<path id="path15_fill" fill-rule="evenodd" d="M 0 0L 15.2294 7.79847L 15.9476 1.72288L 0 0Z"/>
<path id="path16_fill" fill-rule="evenodd" d="M 19.6361 29.2889C 19.8249 26.3287 20.7217 16.3758 20.8499 14.9665L 20.7453 15.0946L 2.586 0L 0 27.6301L 19.6361 29.2889Z"/>
<path id="path17_fill" fill-rule="evenodd" d="M 197.383 92.0979L 143.417 87.5395L 146.387 55.8096L 200.026 59.0733L 197.383 92.0979ZM 120.409 85.5945L 96.1912 83.5479C 96.171 83.8513 96.1608 84.0907 96.1608 84.1986L 94.4751 84.1986C 94.4751 84.0638 94.4885 83.7738 94.5121 83.4063L 72.2192 81.5216L 75.5874 51.5044L 123.525 54.4208L 120.409 85.5945ZM 195.737 30.6747L 174.597 30.0678L 177.075 1.56441L 153.491 1.17331L 150.875 29.1608L 150.056 29.1136L 101.063 27.2289L 103.916 0.347273L 83.0555 0L 80.0953 26.4231L 58.2576 25.5802L 51.865 79.802L 10.1316 76.2753L 0 154.931L 19.0596 157.911L 25.8128 103.218L 48.8171 105.706L 42.2324 161.533L 62.8867 164.759L 69.259 107.914L 93.9087 110.581L 87.7421 168.643L 110.18 172.15L 116.097 112.982L 142.766 115.861L 137.105 176.361L 161.559 180.181L 166.92 118.474L 194.904 121.498L 189.85 184.601L 216.54 188.775L 221.236 124.347L 252.7 127.749L 248.398 193.751L 277.687 198.33L 283.26 99.3571L 246.557 96.3497L 246.564 96.2553L 223.556 94.3133L 223.617 93.4805L 228.088 32.1109L 195.737 30.6612L 195.737 30.6747Z"/>
<path id="path18_fill" fill-rule="evenodd" d="M 24.5991 18.1728L 4.34597 0L 0 59.6905L 21.332 61.4943L 24.5991 18.1728Z"/>
<path id="path19_fill" fill-rule="evenodd" d="M 14.4304 11.9995L 0 0L 43.3956 2.64332L 42.492 13.9415L 14.4304 11.9995Z"/>
<path id="path20_fill" fill-rule="evenodd" d="M 0 0L 17.4108 14.4742L 17.2254 14.6934L 47.428 16.7871L 48.5373 2.95351L 0 0ZM 7.55566 2.99414L 45.8096 5.32053L 45.1083 14.09L 18.7021 12.2592L 7.55566 2.99414Z"/>
<path id="path21_fill" fill-rule="evenodd" d="M 0 62.4619L 28.5135 66.9192L 32.0199 13.1424L 4.55164 0L 0 62.4619Z"/>
<path id="path22_fill" fill-rule="evenodd" d="M 14.518 12.0703L 0 0L 37.2998 2.26907L 36.1568 13.7055L 14.518 12.0703Z"/>
<path id="path23_fill" fill-rule="evenodd" d="M 0 0L 17.4918 14.5416L 17.3097 14.7608L 41.0692 16.5578L 42.4651 2.58263L 0 0ZM 7.55566 2.99414L 39.6868 4.94629L 38.7967 13.8506L 18.7965 12.3368L 7.55566 2.99414Z"/>
<path id="path24_fill" fill-rule="evenodd" d="M 0 0L 0 0.00337158L 0.0876611 0.0168579L 0.0910327 0.0134863L 0 0Z"/>
<path id="path25_fill" fill-rule="evenodd" d="M 21.74 0.85301L 21.7433 0.836152L 0.00337158 0L 0 0.0168579L 21.74 0.85301Z"/>
<path id="path26_fill" fill-rule="evenodd" d="M 22.4514 0.391104L 22.4514 0.374246L 0.00337158 0L 0 0.0168579L 22.4514 0.391104Z"/>
<path id="path27_fill" fill-rule="evenodd" d="M 0 0L 0 0.0101147L 0.0910327 0.0236011L 0.0910327 0.0134863L 0 0Z"/>
<path id="path28_fill" fill-rule="evenodd" d="M 0 0L 0 0.00674316L 0.0910327 0.0236011L 0.0910327 0.0134863L 0 0Z"/>
<path id="path29_fill" fill-rule="evenodd" d="M 0 0L 0 0.00337158L 0.0910327 0.0168579L 0.0910327 0.0134863L 0 0Z"/>
<path id="path30_fill" fill-rule="evenodd" d="M 0 26.3152L 18.8202 26.8547L 19.9935 10.0608L 2.28256 0L 0 26.3152Z"/>
<path id="path31_fill" fill-rule="evenodd" d="M 16.4263 25.3846L 18.0447 8.37501L 2.62646 0L 0 24.7508L 16.4263 25.3846Z"/>
<path id="path32_fill" fill-rule="evenodd" d="M 2.53206 0L 0 25.2869L 15.5868 34.0597L 17.1411 13.0379L 2.53206 0Z"/>
<path id="path33_fill" fill-rule="evenodd" d="M 9.02573 4.89891L 0 0L 14.2685 0.236011L 23.4696 5.41476L 9.02573 4.89891Z"/>
<path id="path34_fill" fill-rule="evenodd" d="M 0 0L 13.8201 7.50177L 33.7563 8.21655L 19.744 0.327043L 0 0ZM 10.2699 2.70068L 19.063 2.84566L 23.4528 5.31703L 14.5046 4.99673L 10.2699 2.70068Z"/>
<path id="path35_fill" fill-rule="evenodd" d="M 0 25.4184L 21.7029 25.7791L 24.2788 0L 2.68378 0.114634L 0 25.4184Z"/>
<path id="path36_fill" fill-rule="evenodd" d="M 0 27.0232L 24.5822 27.4312L 26.7771 0L 2.33313 0.124749L 0 27.0232Z"/>
<path id="path37_fill" fill-rule="evenodd" d="M 11.7297 6.66562L 0 0L 17.4243 0.289956L 29.4845 8.07494L 11.7297 6.66562Z"/>
<path id="path38_fill" fill-rule="evenodd" d="M 0 0L 16.2814 9.24825L 39.3126 11.0756L 22.7379 0.377617L 0 0ZM 9.85852 2.69385L 21.976 2.89277L 29.5182 7.76134L 17.0434 6.77346L 9.85852 2.69385Z"/>
<path id="path39_fill" fill-rule="evenodd" d="M 0 26.8378L 17.9166 38.4023L 18.6954 16.2342L 2.1477 0L 0 26.8378Z"/>
<path id="path40_fill" fill-rule="evenodd" d="M 4.0459 1.68242L 4.12682 1.69253L 3.56713 10.2766L 3.48959 10.2395L 3.36484 12.1208L 3.44239 12.1579L 0 64.9434L 1.6723 65.203L 5.91038 0.188809L 4.15716 0L 4.0459 1.68242Z"/>
<path id="path41_fill" fill-rule="evenodd" d="M 5.82947 1.87774L 5.90364 1.88786L 5.90701 1.87437L 5.82947 1.86426L 5.82947 1.87774ZM 5.13159 12.5489L 5.13496 12.5489L 5.17542 13.1221L 5.21588 12.4849L 5.13833 12.4512L 5.13159 12.5489ZM 1.78357 65.1625L 1.9218 63.0283L 1.78357 65.1625ZM 3.34461 67.1113L 0 66.5887L 0.0505737 65.82L 3.45924 13.5942L 3.41541 12.9974L 3.61771 9.89559L 3.69525 9.93268L 4.12345 3.3581L 4.09647 2.5624L 4.26168 0L 7.69395 0.374246L 3.34461 67.1113Z"/>
<path id="path42_fill" fill-rule="evenodd" d="M 4.87194 0L 4.73707 1.68242L 4.83148 1.69253L 4.06613 11.2712L 3.9751 11.2206L 3.78966 13.5167L 3.88069 13.5706L 0 62.0439L 1.66893 62.3068L 6.64539 0.19218L 4.87194 0Z"/>
<path id="path43_fill" fill-rule="evenodd" d="M 6.54089 1.89123L 6.57461 2.6903L 6.63867 1.87437L 6.54427 1.86426L 6.54089 1.89123ZM 5.57324 13.9986L 5.62382 14.5718L 5.70136 13.5974L 5.61033 13.5435L 5.57324 13.9986ZM 3.33787 64.2118L 0 63.6926L 3.90092 14.9563L 3.85035 14.3798L 4.1403 10.7655L 4.23134 10.816L 4.83148 3.3581L 4.82811 3.3581L 4.79776 2.54892L 5.00343 0L 8.44918 0.380989L 3.33787 64.2118Z"/>
<path id="path44_fill" fill-rule="evenodd" d="M 5.29001 1.67905L 5.40127 1.69253L 4.49432 11.3959L 4.38643 11.3285L 4.1403 13.9651L 4.24819 14.0325L 0 59.4444L 1.66556 59.704L 7.23204 0.19218L 5.44848 0L 5.29001 1.67905Z"/>
<path id="path45_fill" fill-rule="evenodd" d="M 7.11743 1.871L 7.22532 1.88449L 7.22869 1.87437L 7.1208 1.86426L 7.11743 1.871ZM 5.93738 14.4605L 5.99807 15.0168L 6.11607 13.7423L 6.01492 13.6816L 5.93738 14.4605ZM 3.33449 61.6089L 0 61.0863L 4.27517 15.4014L 4.21448 14.8181L 4.58535 10.843L 4.69324 10.9104L 5.3979 3.36484L 5.36082 2.53206L 5.6002 0L 9.05944 0.380989L 8.98527 1.20703L 3.33449 61.6089Z"/>
<path id="path46_fill" fill-rule="evenodd" d="M 0.0910327 0.0236011L 0.0910327 0.0168579L 0 0L 0 0.0101147L 0.0910327 0.0236011Z"/>
<path id="path47_fill" fill-rule="evenodd" d="M 1.77682 1.98586L 0 1.67568L 0 0L 1.68579 0.232639L 1.77682 0.977759L 1.77682 1.98586Z"/>
<path id="path48_fill" fill-rule="evenodd" d="M 19.454 0.556311L 0.107891 0L 0 1.21377L 21.1398 1.82065L 21.1398 1.80717L 51.7201 3.1794L 51.8077 1.9926L 19.454 0.542825L 19.454 0.556311Z"/>
<path id="path49_fill" fill-rule="evenodd" d="M 53.4193 4.92251L 22.0333 3.53005L 0 2.89282L 0.252869 0L 19.5282 0.556311L 19.5282 0.525967L 53.6284 2.05329L 53.4193 4.92251Z"/>
<path id="path50_fill" fill-rule="evenodd" d="M 21.3219 1.79368L 0.080918 0L 0.0606885 0.283213L 0 1.11262L 23.0077 3.05802L 23.0009 3.14906L 57.9541 6.01827L 58.0182 4.89554L 21.3151 1.88471L 21.3219 1.79368Z"/>
<path id="path51_fill" fill-rule="evenodd" d="M 59.65 7.8423L 23.0043 4.83148L 23.011 4.74044L 0 2.79841L 0.215781 0L 23.1223 1.93529L 23.1156 2.02632L 59.8051 5.03377L 59.65 7.8423Z"/>
<path id="path52_fill" fill-rule="evenodd" d="M 0 27.3199L 48.9925 29.2046L 49.8118 29.2552L 52.4315 1.26434L 74.2186 1.6251L 74.3265 0.391104L 50.7457 0L 48.126 27.9909L 47.3067 27.9403L 0.12812 26.1264L 0 27.3199Z"/>
<path id="path53_fill" fill-rule="evenodd" d="M 49.8759 29.2149L 49.9837 29.2216L 52.5563 1.71289L 52.4484 1.71289L 49.8759 29.2149ZM 51.511 30.9983L 49.8792 30.9039L 0 28.9821L 0.310186 26.1062L 48.2979 27.9572L 50.9143 0L 76.1775 0.421448L 75.9314 3.33787L 54.1341 2.97711L 51.511 30.9983Z"/>
<path id="path54_fill" fill-rule="evenodd" d="M 4.01893 1.39246L 26.676 1.27446L 26.7771 0L 2.33313 0.12812L 0 27.0266L 1.79031 27.0536L 4.01893 1.39246Z"/>
<path id="path55_fill" fill-rule="evenodd" d="M 1.83752 27.0435L 1.94204 27.0435L 4.1302 1.81396L 4.02568 1.81396L 1.83752 27.0435ZM 3.48284 28.7562L 0 28.6955L 2.47811 0.134863L 28.6079 0L 28.3719 2.95688L 5.71146 3.07825L 3.48284 28.7562Z"/>
<path id="path56_fill" fill-rule="evenodd" d="M 6.12616 1.6723L 6.25766 1.68579L 5.54288 7.76138L 5.41476 7.69732L 5.20572 9.48426L 5.33047 9.54832L 0 54.7781L 1.66556 55.0377L 8.13563 0.195552L 6.32509 0L 6.12616 1.6723Z"/>
<path id="path57_fill" fill-rule="evenodd" d="M 7.03991 9.92576L 7.1006 10.5731L 3.57056 40.5127L 8.12556 1.86768L 8.12219 1.86768L 7.16803 9.99319L 7.03991 9.92576ZM 3.33112 56.9292L 0 56.4099L 5.35744 10.961L 5.29676 10.3103L 5.65077 7.3197L 5.77889 7.38376L 6.25091 3.36821L 6.22057 2.50171L 6.5139 0L 10.0035 0.374246L 9.90234 1.22051L 3.33112 56.9292Z"/>
<path id="path58_fill" fill-rule="evenodd" d="M 0.0910327 0.0168579L 0.0910327 0.0134863L 0 0L 0 0.00337158L 0.0910327 0.0168579Z"/>
<path id="path59_fill" fill-rule="evenodd" d="M 1.68579 1.85774L 0.603513 1.66893L 0.718147 0.856382L 0 0.849639L 0.721519 0.849639L 0.839524 0L 1.59476 0.0842896L 1.68579 0.849639L 1.68579 1.85774Z"/>
<path id="path60_fill" fill-rule="evenodd" d="M 5.75192 1.67568L 5.8733 1.68916L 5.10458 8.93806L 4.98657 8.874L 4.79439 10.6845L 4.9124 10.7452L 0 57.0135L 1.66893 57.2731L 7.72767 0.19218L 5.93061 0L 5.75192 1.67568Z"/>
<path id="path61_fill" fill-rule="evenodd" d="M 6.61504 11.153L 6.67236 11.7733L 3.70874 39.6867L 7.72092 1.87774L 7.60292 1.86426L 7.59955 1.86763L 7.71755 1.88112L 6.72968 11.217L 6.61504 11.1496L 6.61504 11.153ZM 3.33112 59.1746L 0 58.6554L 0.0842896 57.8597L 4.93262 12.1546L 4.87531 11.5308L 5.20572 8.46941L 5.32036 8.5301L 5.86655 3.36821L 5.83621 2.52194L 6.10256 0L 9.57866 0.38436L 3.33112 59.1746Z"/>
<path id="path62_fill" fill-rule="evenodd" d="M 1.77682 1.9454L 0.0910327 1.71614L 0 0.971016L 0 0L 1.77682 0.242754L 1.77682 1.9454Z"/>
<path id="path63_fill" fill-rule="evenodd" d="M 0.0910327 0.0168579L 0.0910327 0.0134863L 0.00337158 0L 0 0.00337158L 0.0910327 0.0168579Z"/>
<path id="path64_fill" fill-rule="evenodd" d="M 11.8174 77.5396L 53.5508 81.0663L 59.9434 26.8479L 81.7811 27.6874L 84.7413 1.26434L 103.787 1.58127L 103.916 0.347273L 83.0555 0L 80.1526 25.9174L 80.2807 25.9241L 80.2807 25.941L 80.1492 25.9376L 80.0953 26.4231L 58.2576 25.5836L 51.865 79.802L 10.1316 76.2753L 0 154.931L 1.81391 155.214L 11.8174 77.5396Z"/>
<path id="path65_fill" fill-rule="evenodd" d="M 81.8384 27.664L 81.9699 27.6673L 84.8762 1.71289L 84.7447 1.71289L 82.0306 25.9748L 82.1081 25.9782L 81.8384 27.664ZM 53.6116 81.002L 53.7498 81.0121L 60.0816 27.3129L 59.9468 27.3096L 53.6116 81.002ZM 1.88135 155.076L 2.0297 155.103L 11.9489 78.0486L 11.8073 78.0352L 1.88135 155.076ZM 3.47947 157.031L 0 156.492L 10.3373 76.218L 52.064 79.748L 58.4497 25.5633L 80.2841 26.4029L 83.2444 0L 105.79 0.374246L 105.487 3.29066L 86.4305 2.97711L 83.4703 29.4137L 61.6325 28.5742L 55.2299 82.8297L 13.4931 79.2996L 3.47947 157.031Z"/>
<path id="path66_fill" fill-rule="evenodd" d="M 21.74 0.836152L 0 0L 0 0.0168579L 21.7366 0.85301L 21.74 0.836152Z"/>
<path id="path67_fill" fill-rule="evenodd" d="M 23.4426 2.57589L 0 1.6723L 0.333787 0L 1.05531 0.0101147L 23.7831 0.886726L 23.4426 2.57589Z"/>
<path id="path68_fill" fill-rule="evenodd" d="M 22.4514 0.374246L 0 0L 0 0.0168579L 22.4514 0.391104L 22.4514 0.374246Z"/>
<path id="path69_fill" fill-rule="evenodd" d="M 24.3192 2.09038L 0 1.68579L 0.337158 0.00337158L 1.04182 0L 24.3192 0.387732L 24.3192 2.09038Z"/>
<path id="path70_fill" fill-rule="evenodd" d="M 4.36957 1.37898L 24.1506 1.27446L 24.2788 0L 2.68378 0.114634L 0 25.4184L 1.81728 25.4487L 4.36957 1.37898Z"/>
<path id="path71_fill" fill-rule="evenodd" d="M 1.87122 25.435L 1.99596 25.435L 4.50105 1.79688L 4.3763 1.79688L 1.87122 25.435ZM 3.50982 27.148L 0 27.0873L 2.86247 0.118005L 26.1466 0L 25.8533 2.95688L 6.0621 3.0614L 3.50982 27.148Z"/>
<path id="path72_fill" fill-rule="evenodd" d="M 77.8431 81.7877L 120.962 85.429L 123.572 59.3532L 80.655 56.7402L 77.8431 81.7877ZM 123.987 89.0707L 74.1107 84.8562L 77.6576 53.1802L 127.27 56.1977L 123.987 89.0707ZM 148.997 87.7994L 197.885 91.933L 200.124 64.0062L 151.502 61.0493L 148.997 87.7994ZM 200.977 95.5741L 145.322 90.8741L 148.444 57.4854L 203.758 60.8502L 200.977 95.5741ZM 282.879 203.826L 248.546 198.461L 252.842 132.571L 226.392 129.708L 221.682 194.304L 189.962 189.341L 195.006 126.316L 172.035 123.831L 166.664 185.703L 137.186 181.091L 142.837 120.676L 121.181 118.336L 115.251 177.666L 87.7893 173.373L 93.9458 115.389L 74.313 113.268L 67.9239 170.265L 42.2527 166.256L 48.8239 110.51L 30.8399 108.565L 24.0731 163.377L 0 159.617L 10.7553 76.1168L 52.4618 79.6401L 58.8409 25.5296L 80.6651 26.3691L 83.622 0L 109.543 0.431562L 106.684 27.3705L 151.401 29.0934L 154.014 1.16994L 182.652 1.64533L 180.174 30.1824L 198.63 30.7151L 198.532 34.0867L 176.506 33.4495L 178.977 4.9596L 157.082 4.59209L 154.466 32.583L 102.948 30.6038L 105.804 3.74583L 86.6294 3.42553L 83.6692 29.8621L 61.8247 29.0226L 55.4322 83.2747L 13.6853 79.748L 3.75931 156.792L 21.1567 159.513L 27.8998 104.86L 52.5697 107.526L 45.9816 163.424L 64.967 166.394L 71.3359 109.553L 97.6545 112.398L 91.4845 170.535L 112.247 173.785L 118.164 114.614L 146.505 117.682L 140.841 178.252L 163.613 181.813L 168.974 120.109L 198.627 123.312L 193.569 186.496L 218.586 190.407L 223.283 125.979L 256.419 129.567L 252.11 195.606L 279.723 199.921L 285.192 102.692L 225.478 97.6478L 230.131 33.7529L 233.496 33.9957L 229.079 94.5661L 287.222 99.4819L 287.05 101.525L 288.631 101.613L 282.879 203.826Z"/>
<path id="path73_fill" fill-rule="evenodd" d="M 3.73914 27.519L 23.7427 27.8528L 26.15 3.77637L 6.24759 3.88089L 3.73914 27.519ZM 199.979 234.662L 175.224 230.623L 175.764 227.299L 196.863 230.738L 202.578 145.45L 180.676 129.89L 142.668 126.775L 146.104 81.2585L 125.328 62.617L 91.2586 61.0931L 92.759 39.5487L 119.253 41.6492L 120.005 20.1317L 102.934 3.37833L 79.0366 3.50307L 76.5551 32.1008L 51.2784 31.6794L 48.6553 59.7073L 15.3542 57.6911L 17.3569 36.6727L 40.9243 37.5156L 42.4314 17.2018L 29.3631 5.54288L 26.7906 31.2748L 0 30.8297L 3.21312 0.522595L 28.6551 0.391104L 45.9142 15.7925L 44.0463 40.9984L 20.4116 40.1555L 19.0427 54.5387L 45.6006 56.1436L 48.2069 28.2572L 73.4668 28.6787L 75.9415 0.144978L 104.303 0L 123.43 18.7662L 122.5 45.2905L 95.8878 43.1799L 94.8595 57.8799L 126.687 59.3061L 149.594 79.8559L 146.283 123.686L 181.873 126.606L 182.247 126.876L 206.068 143.788L 199.979 234.662Z"/>
<path id="path74_fill" fill-rule="evenodd" d="M 3.67505 28.7396L 26.5613 29.1206L 28.618 3.38867L 5.86321 3.51005L 3.67505 28.7396ZM 29.6699 32.5459L 0 32.0503L 2.76807 0.151721L 32.2728 0L 29.6699 32.5459Z"/>
<path id="path75_fill" fill-rule="evenodd" d="M 227.713 38.9215L 0 3.33112L 0.519224 0L 228.232 35.5904L 227.713 38.9215Z"/>
<path id="path76_fill" fill-rule="evenodd" d="M 3.37158 16.9692L 0 16.9692C 0 15.6644 1.14297 3.07488 1.27109 1.64533L 1.42281 0L 32.5695 2.22187L 32.3335 5.58671L 4.48083 3.59411C 4.00207 8.93469 3.37158 16.1903 3.37158 16.9692Z"/>
<path id="path77_fill" fill-rule="evenodd" d="M 19.39 18.7157L 0 2.59612L 2.15444 0L 21.5444 16.1195L 19.39 18.7157Z"/>
<path id="path78_fill" fill-rule="evenodd" d="M 3.37158 16.9793L 0 16.9793C 0 15.6745 1.14297 3.085 1.27109 1.65545L 1.42281 0L 28.1561 2.01958L 27.8965 5.38779L 4.48083 3.61434C 4.00207 8.95155 3.37158 16.2005 3.37158 16.9793Z"/>
<path id="path79_fill" fill-rule="evenodd" d="M 19.5889 15.4756L 0 2.83213L 1.83077 0L 21.4197 12.6434L 19.5889 15.4756Z"/>
<path id="path80_fill" fill-rule="evenodd" d="M 19.3158 13.9044L 0 2.9299L 1.66893 0L 20.9814 10.9745L 19.3158 13.9044Z"/>
<path id="path81_fill" fill-rule="evenodd" d="M 17.2187 12.6299L 0 2.93665L 1.65208 0L 18.8707 9.6933L 17.2187 12.6299Z"/>
<path id="path82_fill" fill-rule="evenodd" d="M 17.0164 12.2018L 0 2.96362L 1.60824 0L 18.6246 9.23813L 17.0164 12.2018Z"/>
<path id="path83_fill" fill-rule="evenodd" d="M 24.5653 17.0299L 0 2.92316L 1.67905 0L 26.2444 14.1067L 24.5653 17.0299Z"/>
<path id="path84_fill" fill-rule="evenodd" d="M 27.974 16.3319L 0 3.04454L 1.44978 0L 29.4238 13.2908L 27.974 16.3319Z"/>
<path id="path85_fill" fill-rule="evenodd" d="M 23.1392 16.9995L 0 2.87933L 1.75659 0L 24.8958 14.1202L 23.1392 16.9995Z"/>
<path id="path86_fill" fill-rule="evenodd" d="M 22.3637 14.9901L 0 2.97036L 1.59476 0L 23.9585 12.0197L 22.3637 14.9901Z"/>
<path id="path87_fill" fill-rule="evenodd" d="M 20.3003 13.402L 0 3.00408L 1.53407 0L 21.8344 10.398L 20.3003 13.402Z"/>
</defs>
</svg>
